<svg width="184" height="171" viewBox="0 0 184 171" fill="none" xmlns="http://www.w3.org/2000/svg">
<path d="M123.016 28.0948C122.421 27.0671 120.854 24.9262 120.025 24.0527C102.354 5.33453 69.432 27.1186 83.872 48.4521C99.2399 71.1626 136.093 50.8162 123.016 28.0948ZM99.8788 42.3408C102.814 40.5113 106.827 41.226 108.832 43.9393C110.838 46.6584 110.086 50.3364 107.141 52.1641C104.202 53.9969 100.193 53.279 98.1874 50.5657C96.1791 47.8557 96.9369 44.1711 99.8788 42.3408Z" fill="#FFB6A9"/>
<path d="M104.331 150.241C119.159 141.017 122.972 122.443 112.855 108.765C102.741 95.0838 82.5207 91.4751 67.6993 100.704C52.8779 109.933 49.0576 128.502 59.1747 142.18C69.2917 155.858 89.512 159.466 104.331 150.241ZM81.1838 134.319C85.6674 131.525 91.7882 132.615 94.8515 136.756C97.9155 140.903 96.7588 146.518 92.2725 149.316C87.7853 152.108 81.6673 151.015 78.6012 146.877C75.538 142.736 76.6967 137.112 81.181 134.323L81.1838 134.319Z" fill="#FFB6A9"/>
<path d="M51.6896 60.1195C46.301 61.6116 43.2647 66.8552 44.9078 71.8314C46.5509 76.8076 52.2512 79.632 57.6398 78.1399C63.0283 76.6478 66.0646 71.4043 64.4215 66.4281C62.7784 61.4519 57.0781 58.6274 51.6896 60.1195Z" fill="#FFB6A9"/>
</svg>
