<svg width="249" height="141" viewBox="0 0 249 141" fill="none" xmlns="http://www.w3.org/2000/svg">
<path d="M205.971 37.2188C206.782 39.339 205.607 41.7334 203.288 42.0507C200.655 42.411 198.628 39.6915 199.758 37.2606C200.806 35.0059 203.506 34.6469 205.289 36.2305L205.971 37.2188Z" fill="#FEB6A9"/>
<path d="M162.707 70.9184C164.245 69.8427 164.625 67.717 163.558 66.1705C162.49 64.624 160.378 64.2423 158.841 65.3179C157.303 66.3936 156.922 68.5193 157.99 70.0658C159.058 71.6124 161.17 71.994 162.707 70.9184Z" fill="#FEB6A9"/>
<path d="M174.92 21.3916C177.122 19.851 177.667 16.8059 176.137 14.5904C174.608 12.3748 171.583 11.8277 169.381 13.3684C167.179 14.909 166.634 17.9541 168.163 20.1697C169.693 22.3852 172.718 22.9323 174.92 21.3916Z" fill="#FEB6A9"/>
<path d="M139.077 29.9847C139.354 29.738 140.034 29.264 140.362 29.0852C147.603 25.1372 154.283 36.0242 147.055 40.6537C140.266 45.0025 133.14 35.2866 139.077 29.9847ZM147.676 36.395C148.539 35.7918 148.753 34.5985 148.154 33.7317C147.555 32.8635 146.369 32.6493 145.507 33.2538C144.644 33.8583 144.43 35.0503 145.03 35.9172C145.629 36.7853 146.814 36.9995 147.676 36.395Z" fill="#FEB6A9"/>
<path d="M147.679 36.4017C148.541 35.7984 148.754 34.6057 148.155 33.7377C147.556 32.8697 146.371 32.6551 145.509 33.2584C144.646 33.8617 144.433 35.0544 145.032 35.9223C145.632 36.7903 146.816 37.0049 147.679 36.4017Z" fill="#FEFEFE"/>
<path d="M177.217 47.6476C172.867 50.6921 166.89 49.6111 163.868 45.2336C160.846 40.8561 161.923 34.8414 166.272 31.7968C170.622 28.7523 176.599 29.8333 179.621 34.2108C182.643 38.5883 181.566 44.603 177.217 47.6476ZM178.646 41.8627C179.962 40.9409 180.289 39.1197 179.373 37.7958C178.459 36.4707 176.65 36.1443 175.332 37.0647C174.016 37.9865 173.689 39.8077 174.605 41.1315C175.519 42.4567 177.328 42.7831 178.646 41.8627Z" fill="#FEB6A9"/>
<path d="M178.648 41.8711C179.965 40.9497 180.29 39.1286 179.376 37.8036C178.461 36.4785 176.652 36.1512 175.335 37.0726C174.018 37.9939 173.692 39.815 174.607 41.1401C175.522 42.4652 177.331 42.7925 178.648 41.8711Z" fill="#FEFEFE"/>
<path d="M183.919 68.9999C180.918 71.0993 176.795 70.3538 174.711 67.3353C172.627 64.3156 173.369 60.1665 176.37 58.0659C179.371 55.9666 183.493 56.712 185.578 59.7305C187.662 62.7502 186.92 66.8993 183.919 68.9999ZM185.164 64.6825C186.028 64.078 186.242 62.8834 185.641 62.0139C185.041 61.1444 183.854 60.9303 182.989 61.5348C182.125 62.1392 181.911 63.3338 182.512 64.2033C183.112 65.0728 184.299 65.2869 185.164 64.6825Z" fill="#FEB6A9"/>
<path d="M185.166 64.6896C186.03 64.0851 186.244 62.8905 185.644 62.0213C185.044 61.1521 183.857 60.9375 182.993 61.542C182.129 62.1465 181.915 63.3412 182.515 64.2104C183.115 65.0796 184.302 65.2941 185.166 64.6896Z" fill="#FEFEFE"/>
<path d="M53.7425 55.6976C56.3336 57.0867 58.0481 59.485 58.0481 62.809C58.0481 68.1944 54.4117 72.3604 47.9325 72.3604C44.4219 72.3604 41.6634 71.0562 39.5313 69.7102C38.4446 71.3095 36.8987 72.3604 34.6408 72.3604C31.2132 72.3604 29.2484 69.9203 29.2484 67.1003C29.2484 64.4501 31.0874 62.0087 34.2634 61.5034C34.7238 59.1051 34.7653 56.7068 35.8106 54.6453C34.3892 53.7615 33.3024 52.247 33.3024 50.1856C33.3024 45.389 39.3212 42.2752 45.9677 42.2752C53.1148 42.2752 56.4594 45.8093 56.4594 49.8487C56.4594 52.3319 55.2054 54.2667 53.7425 55.6976ZM42.7074 57.7591C42.4143 59.5268 42.164 61.5034 41.7464 63.4813C42.8747 64.0702 43.92 64.5336 44.9224 64.5336C46.3438 64.5336 47.2633 63.608 47.2633 61.9669C47.2633 60.9577 46.9287 59.989 46.3023 59.3166C44.5891 59.2748 43.2093 58.686 42.7074 57.7591ZM41.8709 50.8162C43.2508 50.8997 44.3791 51.5734 44.8809 52.7941C44.2546 53.046 43.7942 53.7615 43.4181 54.7302C44.0445 54.2667 45.1312 53.9312 46.8457 53.8881C47.3476 53.3411 47.6822 52.6674 47.6822 51.7849C47.6822 50.6073 46.7627 49.6816 45.2155 49.6816C44.0458 49.6816 42.8747 50.0602 41.8722 50.8175L41.8709 50.8162Z" fill="#450A20"/>
<path d="M69.0819 69.8355C67.5775 71.3081 65.5285 72.3604 63.1461 72.3604C59.8028 72.3604 57.2531 70.0457 57.2531 65.9227C57.2531 63.1458 59.0091 59.9054 59.0091 57.7173C59.0091 56.413 58.5915 55.4456 57.0858 55.4456C57.2531 52.8371 59.3852 50.6908 62.5612 50.6908C65.7373 50.6908 67.3259 52.9207 67.3259 55.5292C67.3259 58.7265 65.0266 62.3037 65.0266 64.6185C65.0266 65.6707 65.4857 66.2595 66.2392 66.2595C68.1196 66.2595 69.6668 62.0517 69.6668 58.938C69.6668 57.2969 68.9561 56.2029 67.619 55.8242C67.9536 53.2157 70.2517 50.6908 73.2202 50.6908C75.9787 50.6908 78.1523 52.3319 78.1523 55.4874C78.1523 58.3061 76.3133 61.7567 76.3133 64.4083C76.3133 65.7974 76.8567 66.9332 79.0302 66.9332C78.6541 69.9634 76.5221 72.1933 73.0114 72.1933C71.131 72.1933 69.8354 71.1828 69.0819 69.8368V69.8355Z" fill="#450A20"/>
<path d="M78.1094 64.3234C78.1094 59.989 80.9094 53.0891 80.9094 49.4701C80.9094 48.1659 80.4918 47.0718 79.0289 46.8616C79.1962 44.3367 81.4528 42.2752 84.5043 42.2752C87.0125 42.2752 89.1433 43.9998 89.1433 46.8616C89.1433 49.9336 87.3873 52.5421 86.4263 54.772C87.8477 52.5839 90.1042 50.6908 92.8627 50.6908C96.4576 50.6908 98.6312 53.5095 98.6312 57.8022C98.6312 66.5964 92.7382 72.3604 86.0502 72.3604C80.9509 72.3604 78.1082 69.0783 78.1082 64.3234H78.1094ZM90.6917 59.19C90.6917 57.0019 90.1483 56.3282 89.4377 56.3282C87.6402 56.3282 85.4666 60.6627 85.4666 64.3652C85.4666 66.7635 86.5119 66.9319 86.888 66.9319C89.1874 66.9319 90.6917 61.4199 90.6917 59.19Z" fill="#450A20"/>
<path d="M97.42 64.3234C97.42 59.989 100.22 53.0891 100.22 49.4701C100.22 48.1659 99.8024 47.0718 98.3395 46.8616C98.5068 44.3367 100.763 42.2752 103.815 42.2752C106.323 42.2752 108.454 43.9998 108.454 46.8616C108.454 49.9336 106.698 52.5421 105.737 54.772C107.158 52.5839 109.415 50.6908 112.173 50.6908C115.768 50.6908 117.942 53.5095 117.942 57.8022C117.942 66.5964 112.049 72.3604 105.361 72.3604C100.261 72.3604 97.4187 69.0783 97.4187 64.3234H97.42ZM110.002 59.19C110.002 57.0019 109.459 56.3282 108.748 56.3282C106.951 56.3282 104.777 60.6627 104.777 64.3652C104.777 66.7635 105.822 66.9319 106.199 66.9319C108.498 66.9319 110.002 61.4199 110.002 59.19Z" fill="#450A20"/>
<path d="M127.557 66.9319C127.264 69.6671 124.464 72.192 121.078 72.192C117.691 72.192 116.354 69.4569 116.354 66.9319C116.354 62.5975 119.907 54.0983 119.907 49.3017C119.907 47.7873 119.07 46.9452 118.026 46.8616C118.152 44.4633 120.408 42.2752 123.418 42.2752C126.01 42.2752 128.225 43.9163 128.225 47.4087C128.225 51.7431 124.839 60.9577 124.839 64.4083C124.839 66.6382 126.218 66.9332 127.555 66.9332L127.557 66.9319Z" fill="#450A20"/>
<path d="M142.772 62.01C144.485 62.3886 145.404 63.6511 145.404 65.1238C145.404 68.4059 141.016 72.3618 135.331 72.3618C130.274 72.3618 126.303 69.248 126.303 63.484C126.303 56.7512 131.82 50.6921 138.968 50.6921C142.479 50.6921 145.906 52.4168 145.906 56.3308C145.906 57.9301 145.195 60.3702 142.772 62.0113V62.01ZM135.832 63.7346C135.247 63.7346 134.662 63.6929 134.035 63.6511C134.16 65.2504 134.787 66.2596 136.417 66.2596C138.214 66.2596 139.677 64.9971 140.388 63.1041C139.134 63.4827 137.63 63.7346 135.832 63.7346ZM134.203 60.9159C136.67 60.7893 138.466 59.8219 138.466 57.8858C138.466 56.9183 138.007 56.3295 137.253 56.3295C135.874 56.3295 134.662 58.4328 134.202 60.9159H134.203Z" fill="#450A20"/>
<path d="M92.6111 102.128C91.5814 102.327 90.6101 102.286 89.6932 102.006C88.7763 101.725 88.0124 101.256 87.399 100.598C86.7856 99.9403 86.39 99.1478 86.2137 98.2222C86.0619 97.4284 86.1099 96.666 86.3563 95.9322C86.6027 95.1985 86.9827 94.5431 87.4963 93.9635C88.0098 93.3851 88.5805 92.9543 89.2081 92.6736C89.1083 92.624 89.0383 92.5861 88.9994 92.56C88.9604 92.5339 88.9034 92.5039 88.8295 92.4725L87.0074 91.4868C86.6183 92.5443 86.0464 93.5013 85.2903 94.3551C84.5342 95.209 83.642 95.9244 82.6174 96.4989C81.5916 97.0746 80.4555 97.4819 79.208 97.7235C77.4131 98.0707 75.7959 98.0394 74.355 97.6321C72.9155 97.2247 71.7211 96.4949 70.7718 95.4453C69.8225 94.3943 69.1961 93.0757 68.8939 91.4894C68.6929 90.4319 68.7007 89.4019 68.9185 88.4005C69.1364 87.3991 69.5255 86.467 70.0883 85.604C70.6499 84.741 71.3476 83.9903 72.1789 83.3493C71.7911 83.1039 71.441 82.8127 71.1271 82.4733C70.8133 82.1351 70.5474 81.7513 70.3295 81.3244C70.1117 80.8988 69.9599 80.4536 69.8717 79.9901C69.6915 79.0423 69.7732 78.1362 70.1194 77.2693C70.4657 76.4024 71.0039 75.6596 71.7367 75.0381C72.4694 74.4167 73.3396 74.0094 74.346 73.8148C75.4405 73.6033 76.4326 73.6294 77.3223 73.8905C78.2119 74.153 78.9602 74.6256 79.5672 75.3084C80.1741 75.9912 80.5762 76.8502 80.7733 77.8855C80.9497 78.8112 80.8731 79.695 80.5463 80.5345C80.2182 81.3753 79.68 82.096 78.933 82.6965L84.3202 85.5975L84.3539 85.4199C84.5459 84.4003 84.7702 83.4942 85.0283 82.7017C85.2864 81.9093 85.6106 81.2304 86.0023 80.6625C86.3939 80.0959 86.9114 79.6246 87.5546 79.2485C88.1979 78.8726 89.0007 78.5919 89.9642 78.4065L92.2299 77.9691L92.9042 81.5072L90.8681 81.9001C90.2988 82.0098 89.8501 82.1887 89.5233 82.4341C89.1952 82.6809 88.941 83.0151 88.7607 83.4381C88.5805 83.8624 88.43 84.382 88.3094 84.9995C88.1888 85.6171 88.0526 86.3638 87.9022 87.2372L87.8542 87.5205L88.076 87.6146C90.0005 88.5454 91.5918 89.4489 92.8485 90.3262C94.1052 91.2035 95.0739 92.09 95.7561 92.9869C96.4382 93.8838 96.8753 94.8382 97.0685 95.8526C97.2617 96.8657 97.2034 97.8149 96.896 98.6961C96.5874 99.5787 96.0647 100.319 95.3281 100.918C94.5915 101.517 93.6863 101.921 92.6137 102.128H92.6111ZM78.6697 93.6475C79.3921 93.5078 80.0561 93.2715 80.6617 92.9373C81.2674 92.6031 81.8069 92.1566 82.2789 91.5965C82.751 91.0377 83.1362 90.351 83.4358 89.5389L75.4224 85.1901C74.9685 85.5518 74.5561 85.9748 74.1826 86.4578C73.8091 86.9409 73.5367 87.4801 73.3668 88.0728C73.1956 88.6655 73.1827 89.3366 73.3253 90.086C73.481 90.9019 73.8142 91.6082 74.3252 92.2062C74.8362 92.8054 75.4691 93.2363 76.2238 93.5026C76.9773 93.7689 77.7931 93.8159 78.6684 93.6475H78.6697ZM75.7388 80.9484C76.0293 80.686 76.255 80.4144 76.4171 80.1324C76.5792 79.8504 76.6855 79.5776 76.7387 79.3164C76.7906 79.0553 76.7984 78.8255 76.7607 78.6271C76.6816 78.2093 76.4819 77.8751 76.1616 77.6284C75.8426 77.3816 75.4639 77.3007 75.0255 77.3855C74.7402 77.4404 74.5029 77.5605 74.3109 77.7459C74.119 77.9312 73.9841 78.1467 73.9063 78.3895C73.8272 78.6336 73.8155 78.8987 73.87 79.1846C73.9245 79.4718 74.0386 79.712 74.2124 79.9065C74.3862 80.1011 74.6079 80.2812 74.8777 80.447C75.1474 80.6129 75.434 80.78 75.7388 80.9497V80.9484ZM91.9822 98.6517C92.3764 98.576 92.6812 98.3619 92.8991 98.012C93.1156 97.6621 93.174 97.2221 93.0728 96.6934C93.0145 96.384 92.9055 96.085 92.7486 95.7965C92.5917 95.5066 92.3647 95.2416 92.0691 95.0027C91.6476 95.175 91.2857 95.3878 90.9823 95.6411C90.6788 95.8944 90.4609 96.1816 90.3299 96.5041C90.1977 96.8265 90.1678 97.1751 90.2392 97.5498C90.3183 97.9689 90.531 98.2757 90.8746 98.4729C91.2183 98.6687 91.5879 98.7301 91.9809 98.653L91.9822 98.6517Z" fill="#FFB6A9"/>
<path d="M119.652 90.4972C120.63 91.8759 121.216 93.5979 121.216 95.6163C121.216 103.246 115.935 107.725 108.015 107.725C106.451 107.725 105.033 107.48 103.762 106.938C103.664 107.185 103.615 107.48 103.615 107.725C103.615 108.562 104.153 109.152 105.767 109.152C107.82 109.152 110.412 108.168 113.003 108.168C116.182 108.168 119.213 109.94 119.213 114.124C119.213 118.308 116.376 120.966 112.123 121.31C112.123 119.883 110.998 119.243 109.629 119.243C107.966 119.243 105.767 120.03 103.273 120.03C97.9439 120.03 95.8896 116.437 95.8896 112.992C95.8896 109.152 98.4328 106.446 100.779 105.018C99.3614 103.541 98.5301 101.572 98.5301 99.1596C98.5301 92.5639 103.762 86.8547 111.83 86.8547C113.541 86.8547 115.155 87.1994 116.523 87.8887C116.034 86.215 114.714 85.3298 112.807 85.3298C112.172 85.3298 111.487 85.4277 110.754 85.6249C110.461 84.8376 110.315 84.0504 110.315 83.3114C110.315 79.7681 113.347 77.0108 116.769 77.0108C120.485 77.0108 123.125 79.4718 123.125 83.1639C123.125 86.0674 121.854 88.6772 119.654 90.4972H119.652ZM112.514 95.863C112.514 93.4517 111.536 92.9595 110.852 92.9595C108.896 92.9595 107.576 96.6516 107.576 99.4076C107.576 101.179 108.162 102.361 109.385 102.361C111.586 102.361 112.514 98.2261 112.514 95.863Z" fill="#A73760"/>
<path d="M132.414 105.854C132.071 109.054 128.795 112.008 124.835 112.008C120.874 112.008 119.31 108.808 119.31 105.854C119.31 100.785 123.466 90.8419 123.466 85.2306C123.466 83.4589 122.489 82.4746 121.266 82.3753C121.412 79.5697 124.053 77.0108 127.572 77.0108C130.604 77.0108 133.196 78.93 133.196 83.0164C133.196 88.0858 129.235 98.8658 129.235 102.901C129.235 105.51 130.848 105.854 132.414 105.854Z" fill="#A73760"/>
<path d="M131.044 101.967C131.044 94.2389 136.96 86.856 145.175 86.856C150.7 86.856 154.757 90.0559 154.757 96.8474C154.757 104.822 149.134 112.205 141.018 112.205C135.151 112.205 131.044 108.365 131.044 101.967ZM146.153 96.8474C146.153 94.534 145.517 93.4517 144.294 93.4517C141.85 93.4517 139.894 98.0786 139.894 101.721C139.894 104.084 140.725 105.069 141.85 105.069C144.245 105.069 146.153 100.836 146.153 96.8487V96.8474Z" fill="#A73760"/>
<path d="M167.176 104.378C166.638 102.262 166.394 99.9481 166.394 97.4871C166.394 91.0886 168.692 86.856 173.043 86.856C176.026 86.856 177.835 89.4645 177.835 92.2701C177.835 95.2233 176.808 98.7183 175.244 101.869C175.244 103.935 175.733 105.314 176.808 105.314C179.155 105.314 180.476 101.327 180.476 98.1765C180.476 95.4204 179.595 93.6971 178.128 93.0078C178.667 89.9554 181.16 86.8547 185.413 86.8547C188.396 86.8547 190.694 89.1185 190.694 93.2036C190.694 101.718 184.093 112.006 174.706 112.006C172.261 112.006 170.452 110.874 169.132 108.954C166.98 110.873 164.389 112.006 161.26 112.006C156.175 112.006 154.366 108.462 154.366 104.672C154.366 101.718 155.979 97.6817 155.979 95.5654C155.979 93.4491 155.001 92.4151 153.289 92.4151C153.778 88.9201 156.81 86.8534 160.086 86.8534C163.558 86.8534 166.052 89.2648 166.052 92.4151C166.052 95.5654 163.657 100.487 163.657 103.145C163.657 104.327 164.096 105.311 165.319 105.311C165.857 105.311 166.541 104.967 167.178 104.377L167.176 104.378Z" fill="#A73760"/>
</svg>
