<svg width="249" height="141" viewBox="0 0 249 141" fill="none" xmlns="http://www.w3.org/2000/svg">
<path d="M205.97 37.2188C206.781 39.339 205.606 41.7334 203.287 42.0507C200.655 42.411 198.628 39.6915 199.757 37.2606C200.805 35.0059 203.505 34.6469 205.288 36.2305L205.97 37.2188Z" fill="#FEB6A9"/>
<path d="M162.707 70.9184C164.244 69.8427 164.625 67.717 163.557 66.1705C162.49 64.624 160.378 64.2423 158.84 65.3179C157.303 66.3936 156.922 68.5193 157.99 70.0658C159.058 71.6124 161.169 71.994 162.707 70.9184Z" fill="#FEB6A9"/>
<path d="M174.92 21.3916C177.122 19.851 177.667 16.8059 176.137 14.5904C174.608 12.3748 171.583 11.8277 169.381 13.3684C167.179 14.909 166.634 17.9541 168.163 20.1697C169.693 22.3852 172.718 22.9323 174.92 21.3916Z" fill="#FEB6A9"/>
<path d="M139.077 29.9847C139.354 29.738 140.034 29.264 140.362 29.0852C147.602 25.1372 154.283 36.0242 147.055 40.6537C140.266 45.0025 133.14 35.2866 139.077 29.9847ZM147.676 36.395C148.539 35.7918 148.753 34.5985 148.154 33.7317C147.554 32.8635 146.369 32.6493 145.507 33.2538C144.644 33.8583 144.43 35.0503 145.029 35.9172C145.629 36.7853 146.814 36.9995 147.676 36.395Z" fill="#FEB6A9"/>
<path d="M147.679 36.4017C148.541 35.7984 148.754 34.6057 148.155 33.7377C147.555 32.8697 146.371 32.6551 145.508 33.2584C144.646 33.8617 144.433 35.0544 145.032 35.9223C145.632 36.7903 146.816 37.0049 147.679 36.4017Z" fill="#FEFEFE"/>
<path d="M177.217 47.6476C172.867 50.6921 166.89 49.6111 163.868 45.2336C160.846 40.8561 161.923 34.8414 166.273 31.7968C170.622 28.7523 176.6 29.8333 179.621 34.2108C182.643 38.5883 181.567 44.603 177.217 47.6476ZM178.646 41.8627C179.962 40.9409 180.289 39.1197 179.374 37.7958C178.459 36.4707 176.65 36.1443 175.333 37.0647C174.016 37.9865 173.689 39.8077 174.605 41.1315C175.519 42.4567 177.328 42.7831 178.646 41.8627Z" fill="#FEB6A9"/>
<path d="M178.648 41.8711C179.965 40.9497 180.291 39.1286 179.376 37.8036C178.462 36.4785 176.652 36.1512 175.336 37.0726C174.019 37.9939 173.693 39.815 174.608 41.1401C175.522 42.4652 177.332 42.7925 178.648 41.8711Z" fill="#FEFEFE"/>
<path d="M183.919 68.9999C180.918 71.0993 176.795 70.3538 174.711 67.3353C172.627 64.3156 173.369 60.1665 176.37 58.0659C179.371 55.9666 183.494 56.712 185.578 59.7305C187.662 62.7502 186.92 66.8993 183.919 68.9999ZM185.164 64.6825C186.028 64.078 186.242 62.8834 185.641 62.0139C185.041 61.1444 183.854 60.9303 182.989 61.5348C182.125 62.1392 181.911 63.3338 182.512 64.2033C183.112 65.0728 184.299 65.2869 185.164 64.6825Z" fill="#FEB6A9"/>
<path d="M185.166 64.6896C186.03 64.0851 186.244 62.8905 185.644 62.0213C185.044 61.1521 183.857 60.9375 182.993 61.542C182.129 62.1465 181.915 63.3412 182.515 64.2104C183.115 65.0796 184.302 65.2941 185.166 64.6896Z" fill="#FEFEFE"/>
<path d="M53.7421 55.6976C56.3333 57.0867 58.0478 59.485 58.0478 62.809C58.0478 68.1944 54.4113 72.3604 47.9321 72.3604C44.4215 72.3604 41.663 71.0562 39.531 69.7102C38.4442 71.3095 36.8983 72.3604 34.6405 72.3604C31.2128 72.3604 29.248 69.9203 29.248 67.1003C29.248 64.4501 31.087 62.0087 34.2631 61.5034C34.7235 59.1051 34.765 56.7068 35.8102 54.6453C34.3889 53.7615 33.3021 52.247 33.3021 50.1856C33.3021 45.389 39.3209 42.2752 45.9674 42.2752C53.1144 42.2752 56.4591 45.8093 56.4591 49.8487C56.4591 52.3319 55.205 54.2667 53.7421 55.6976ZM42.707 57.7591C42.4139 59.5268 42.1636 61.5034 41.746 63.4813C42.8743 64.0702 43.9196 64.5336 44.9221 64.5336C46.3435 64.5336 47.2629 63.608 47.2629 61.9669C47.2629 60.9577 46.9283 59.989 46.302 59.3166C44.5888 59.2748 43.2089 58.686 42.707 57.7591ZM41.8705 50.8162C43.2504 50.8997 44.3787 51.5734 44.8806 52.7941C44.2542 53.046 43.7938 53.7615 43.4177 54.7302C44.0441 54.2667 45.1309 53.9312 46.8453 53.8881C47.3472 53.3411 47.6818 52.6674 47.6818 51.7849C47.6818 50.6073 46.7623 49.6816 45.2152 49.6816C44.0454 49.6816 42.8743 50.0602 41.8718 50.8175L41.8705 50.8162Z" fill="#FFE5D9"/>
<path d="M69.082 69.8355C67.5777 71.3081 65.5286 72.3604 63.1462 72.3604C59.8029 72.3604 57.2532 70.0457 57.2532 65.9227C57.2532 63.1458 59.0092 59.9054 59.0092 57.7173C59.0092 56.413 58.5916 55.4456 57.0859 55.4456C57.2532 52.8371 59.3853 50.6908 62.5613 50.6908C65.7374 50.6908 67.3261 52.9207 67.3261 55.5292C67.3261 58.7265 65.0267 62.3037 65.0267 64.6185C65.0267 65.6707 65.4858 66.2595 66.2393 66.2595C68.1198 66.2595 69.6669 62.0517 69.6669 58.938C69.6669 57.2969 68.9562 56.2029 67.6192 55.8242C67.9538 53.2157 70.2518 50.6908 73.2204 50.6908C75.9788 50.6908 78.1524 52.3319 78.1524 55.4874C78.1524 58.3061 76.3134 61.7567 76.3134 64.4083C76.3134 65.7974 76.8568 66.9332 79.0304 66.9332C78.6543 69.9634 76.5222 72.1933 73.0116 72.1933C71.1311 72.1933 69.8355 71.1828 69.082 69.8368V69.8355Z" fill="#FFE5D9"/>
<path d="M78.1087 64.3234C78.1087 59.989 80.9087 53.0891 80.9087 49.4701C80.9087 48.1659 80.4911 47.0718 79.0282 46.8616C79.1955 44.3367 81.4521 42.2752 84.5036 42.2752C87.0118 42.2752 89.1425 43.9998 89.1425 46.8616C89.1425 49.9336 87.3866 52.5421 86.4256 54.772C87.8469 52.5839 90.1035 50.6908 92.862 50.6908C96.4569 50.6908 98.6305 53.5095 98.6305 57.8022C98.6305 66.5964 92.7375 72.3604 86.0495 72.3604C80.9502 72.3604 78.1074 69.0783 78.1074 64.3234H78.1087ZM90.691 59.19C90.691 57.0019 90.1476 56.3282 89.4369 56.3282C87.6395 56.3282 85.4659 60.6627 85.4659 64.3652C85.4659 66.7635 86.5112 66.9319 86.8873 66.9319C89.1866 66.9319 90.691 61.4199 90.691 59.19Z" fill="#FFE5D9"/>
<path d="M97.4193 64.3234C97.4193 59.989 100.219 53.0891 100.219 49.4701C100.219 48.1659 99.8016 47.0718 98.3388 46.8616C98.5061 44.3367 100.763 42.2752 103.814 42.2752C106.322 42.2752 108.453 43.9998 108.453 46.8616C108.453 49.9336 106.697 52.5421 105.736 54.772C107.158 52.5839 109.414 50.6908 112.173 50.6908C115.767 50.6908 117.941 53.5095 117.941 57.8022C117.941 66.5964 112.048 72.3604 105.36 72.3604C100.261 72.3604 97.418 69.0783 97.418 64.3234H97.4193ZM110.002 59.19C110.002 57.0019 109.458 56.3282 108.747 56.3282C106.95 56.3282 104.776 60.6627 104.776 64.3652C104.776 66.7635 105.822 66.9319 106.198 66.9319C108.497 66.9319 110.002 61.4199 110.002 59.19Z" fill="#FFE5D9"/>
<path d="M127.556 66.9319C127.263 69.6671 124.463 72.192 121.077 72.192C117.691 72.192 116.354 69.4569 116.354 66.9319C116.354 62.5975 119.906 54.0983 119.906 49.3017C119.906 47.7873 119.069 46.9452 118.025 46.8616C118.151 44.4633 120.408 42.2752 123.418 42.2752C126.009 42.2752 128.224 43.9163 128.224 47.4087C128.224 51.7431 124.838 60.9577 124.838 64.4083C124.838 66.6382 126.218 66.9332 127.555 66.9332L127.556 66.9319Z" fill="#FFE5D9"/>
<path d="M142.772 62.01C144.485 62.3886 145.404 63.6511 145.404 65.1238C145.404 68.4059 141.016 72.3618 135.332 72.3618C130.274 72.3618 126.303 69.248 126.303 63.484C126.303 56.7512 131.82 50.6921 138.968 50.6921C142.479 50.6921 145.906 52.4168 145.906 56.3308C145.906 57.9301 145.196 60.3702 142.772 62.0113V62.01ZM135.832 63.7346C135.247 63.7346 134.662 63.6929 134.035 63.6511C134.161 65.2504 134.787 66.2596 136.417 66.2596C138.215 66.2596 139.677 64.9971 140.388 63.1041C139.134 63.4827 137.63 63.7346 135.832 63.7346ZM134.203 60.9159C136.67 60.7893 138.466 59.8219 138.466 57.8858C138.466 56.9183 138.007 56.3295 137.254 56.3295C135.874 56.3295 134.662 58.4328 134.202 60.9159H134.203Z" fill="#FFE5D9"/>
<path d="M92.6113 102.128C91.5816 102.327 90.6102 102.286 89.6933 102.006C88.7764 101.725 88.0126 101.256 87.3991 100.598C86.7857 99.9403 86.3902 99.1478 86.2138 98.2222C86.0621 97.4284 86.11 96.666 86.3564 95.9322C86.6029 95.1985 86.9828 94.5431 87.4964 93.9635C88.01 93.3851 88.5806 92.9543 89.2083 92.6736C89.1084 92.624 89.0384 92.5861 88.9995 92.56C88.9606 92.5339 88.9035 92.5039 88.8296 92.4725L87.0075 91.4868C86.6184 92.5443 86.0465 93.5013 85.2904 94.3551C84.5343 95.209 83.6421 95.9244 82.6176 96.4989C81.5917 97.0746 80.4557 97.4819 79.2081 97.7235C77.4132 98.0707 75.796 98.0394 74.3552 97.6321C72.9156 97.2247 71.7212 96.4949 70.7719 95.4453C69.8226 94.3943 69.1962 93.0757 68.894 91.4894C68.693 90.4319 68.7008 89.4019 68.9187 88.4005C69.1365 87.3991 69.5256 86.467 70.0884 85.604C70.65 84.741 71.3477 83.9903 72.179 83.3493C71.7912 83.1039 71.4411 82.8127 71.1272 82.4733C70.8134 82.1351 70.5475 81.7513 70.3297 81.3244C70.1118 80.8988 69.9601 80.4536 69.8719 79.9901C69.6916 79.0423 69.7733 78.1362 70.1196 77.2693C70.4658 76.4024 71.004 75.6596 71.7368 75.0381C72.4695 74.4167 73.3397 74.0094 74.3461 73.8148C75.4407 73.6033 76.4328 73.6294 77.3224 73.8905C78.2121 74.153 78.9604 74.6256 79.5673 75.3084C80.1742 75.9912 80.5763 76.8502 80.7734 77.8855C80.9498 78.8112 80.8733 79.695 80.5464 80.5345C80.2183 81.3753 79.6801 82.096 78.9331 82.6965L84.3204 85.5975L84.3541 85.4199C84.546 84.4003 84.7704 83.4942 85.0284 82.7017C85.2865 81.9093 85.6107 81.2304 86.0024 80.6625C86.3941 80.0959 86.9115 79.6245 87.5548 79.2485C88.198 78.8725 89.0008 78.5919 89.9644 78.4065L92.23 77.9691L92.9044 81.5072L90.8683 81.9001C90.2989 82.0098 89.8502 82.1887 89.5234 82.4341C89.1953 82.6809 88.9411 83.0151 88.7608 83.4381C88.5806 83.8624 88.4301 84.382 88.3095 84.9995C88.1889 85.617 88.0528 86.3638 87.9023 87.2372L87.8543 87.5205L88.0761 87.6146C90.0007 88.5454 91.5919 89.4489 92.8486 90.3262C94.1053 91.2035 95.074 92.09 95.7562 92.9869C96.4383 93.8838 96.8754 94.8382 97.0686 95.8526C97.2619 96.8657 97.2035 97.8148 96.8961 98.6961C96.5875 99.5787 96.0648 100.319 95.3282 100.918C94.5916 101.517 93.6864 101.921 92.6139 102.128H92.6113ZM78.6699 93.6475C79.3922 93.5078 80.0562 93.2715 80.6619 92.9373C81.2675 92.6031 81.807 92.1566 82.2791 91.5965C82.7511 91.0377 83.1363 90.351 83.4359 89.5389L75.4225 85.1901C74.9686 85.5518 74.5562 85.9748 74.1827 86.4578C73.8092 86.9409 73.5368 87.4801 73.3669 88.0728C73.1958 88.6655 73.1828 89.3366 73.3254 90.086C73.4811 90.9019 73.8144 91.6082 74.3253 92.2062C74.8363 92.8054 75.4692 93.2363 76.224 93.5026C76.9774 93.7689 77.7932 93.8159 78.6686 93.6475H78.6699ZM75.7389 80.9484C76.0294 80.686 76.2551 80.4144 76.4172 80.1324C76.5793 79.8504 76.6856 79.5776 76.7388 79.3164C76.7907 79.0553 76.7985 78.8255 76.7609 78.6271C76.6818 78.2093 76.482 77.8751 76.1617 77.6284C75.8427 77.3816 75.464 77.3007 75.0257 77.3855C74.7403 77.4404 74.503 77.5605 74.3111 77.7459C74.1191 77.9312 73.9843 78.1467 73.9064 78.3895C73.8273 78.6336 73.8157 78.8987 73.8701 79.1846C73.9246 79.4718 74.0387 79.712 74.2125 79.9065C74.3863 80.1011 74.6081 80.2812 74.8778 80.447C75.1476 80.6129 75.4342 80.78 75.7389 80.9497V80.9484ZM91.9823 98.6517C92.3765 98.576 92.6813 98.3619 92.8992 98.012C93.1158 97.6621 93.1741 97.2221 93.073 96.6934C93.0146 96.384 92.9057 96.085 92.7487 95.7965C92.5918 95.5066 92.3649 95.2416 92.0692 95.0027C91.6477 95.175 91.2859 95.3878 90.9824 95.6411C90.6789 95.8944 90.4611 96.1816 90.3301 96.5041C90.1978 96.8265 90.168 97.1751 90.2393 97.5498C90.3184 97.9689 90.5311 98.2757 90.8748 98.4729C91.2184 98.6687 91.588 98.7301 91.981 98.653L91.9823 98.6517Z" fill="#FFB6A9"/>
<path d="M119.652 90.4972C120.63 91.8759 121.216 93.5979 121.216 95.6163C121.216 103.246 115.935 107.725 108.015 107.725C106.451 107.725 105.033 107.48 103.762 106.938C103.664 107.185 103.615 107.48 103.615 107.725C103.615 108.562 104.153 109.152 105.767 109.152C107.82 109.152 110.412 108.168 113.003 108.168C116.182 108.168 119.213 109.94 119.213 114.124C119.213 118.308 116.376 120.966 112.123 121.31C112.123 119.883 110.998 119.243 109.629 119.243C107.966 119.243 105.767 120.03 103.273 120.03C97.9439 120.03 95.8896 116.437 95.8896 112.992C95.8896 109.152 98.4328 106.446 100.779 105.018C99.3614 103.541 98.5301 101.572 98.5301 99.1596C98.5301 92.5639 103.762 86.8547 111.83 86.8547C113.541 86.8547 115.155 87.1994 116.523 87.8887C116.034 86.215 114.714 85.3298 112.807 85.3298C112.172 85.3298 111.487 85.4277 110.754 85.6249C110.461 84.8376 110.315 84.0504 110.315 83.3114C110.315 79.7681 113.347 77.0108 116.769 77.0108C120.485 77.0108 123.125 79.4718 123.125 83.1639C123.125 86.0674 121.854 88.6772 119.654 90.4972H119.652ZM112.514 95.863C112.514 93.4517 111.536 92.9595 110.852 92.9595C108.896 92.9595 107.576 96.6516 107.576 99.4076C107.576 101.179 108.162 102.361 109.385 102.361C111.586 102.361 112.514 98.2261 112.514 95.863Z" fill="#FFBF8A"/>
<path d="M132.413 105.854C132.071 109.054 128.795 112.008 124.834 112.008C120.874 112.008 119.31 108.808 119.31 105.854C119.31 100.785 123.466 90.8419 123.466 85.2306C123.466 83.4589 122.488 82.4746 121.265 82.3753C121.412 79.5697 124.052 77.0108 127.572 77.0108C130.604 77.0108 133.195 78.93 133.195 83.0164C133.195 88.0858 129.235 98.8658 129.235 102.901C129.235 105.51 130.848 105.854 132.413 105.854Z" fill="#FFBF8A"/>
<path d="M131.044 101.967C131.044 94.2389 136.96 86.856 145.175 86.856C150.699 86.856 154.757 90.0559 154.757 96.8474C154.757 104.822 149.134 112.205 141.018 112.205C135.151 112.205 131.044 108.365 131.044 101.967ZM146.153 96.8474C146.153 94.534 145.517 93.4517 144.294 93.4517C141.85 93.4517 139.894 98.0786 139.894 101.721C139.894 104.084 140.725 105.069 141.85 105.069C144.245 105.069 146.153 100.836 146.153 96.8487V96.8474Z" fill="#FFBF8A"/>
<path d="M167.176 104.378C166.638 102.262 166.394 99.9481 166.394 97.4871C166.394 91.0886 168.692 86.856 173.043 86.856C176.026 86.856 177.835 89.4645 177.835 92.2701C177.835 95.2233 176.808 98.7183 175.244 101.869C175.244 103.935 175.733 105.314 176.808 105.314C179.155 105.314 180.475 101.327 180.475 98.1765C180.475 95.4204 179.595 93.6971 178.128 93.0078C178.666 89.9554 181.16 86.8547 185.413 86.8547C188.395 86.8547 190.694 89.1185 190.694 93.2036C190.694 101.718 184.092 112.006 174.706 112.006C172.261 112.006 170.452 110.874 169.132 108.954C166.98 110.873 164.389 112.006 161.26 112.006C156.175 112.006 154.365 108.462 154.365 104.672C154.365 101.718 155.979 97.6817 155.979 95.5654C155.979 93.4491 155.001 92.4151 153.289 92.4151C153.778 88.9201 156.81 86.8534 160.086 86.8534C163.558 86.8534 166.052 89.2648 166.052 92.4151C166.052 95.5654 163.656 100.487 163.656 103.145C163.656 104.327 164.096 105.311 165.319 105.311C165.857 105.311 166.541 104.967 167.177 104.377L167.176 104.378Z" fill="#FFBF8A"/>
</svg>
