<svg width="377" height="89" viewBox="0 0 377 89" fill="none" xmlns="http://www.w3.org/2000/svg">
<path d="M376.677 33.6239C377.699 36.3 376.218 39.3222 373.295 39.7226C369.976 40.1774 367.421 36.7449 368.845 33.6767C370.166 30.8308 373.57 30.3777 375.817 32.3765L376.677 33.6239Z" fill="#FFB6A9"/>
<path d="M322.139 76.1592C324.077 74.8015 324.557 72.1185 323.211 70.1665C321.865 68.2146 319.203 67.7328 317.265 69.0905C315.326 70.4482 314.846 73.1312 316.192 75.0832C317.538 77.0352 320.201 77.5169 322.139 76.1592Z" fill="#FFB6A9"/>
<path d="M337.534 13.6478C340.31 11.7031 340.997 7.85976 339.069 5.06332C337.141 2.26688 333.327 1.57633 330.552 3.52095C327.776 5.46556 327.089 9.30895 329.017 12.1054C330.945 14.9018 334.758 15.5924 337.534 13.6478Z" fill="#FFB6A9"/>
<path d="M292.35 24.4938C292.7 24.1824 293.557 23.5842 293.971 23.3584C303.098 18.3754 311.519 32.1167 302.408 37.96C293.85 43.449 284.866 31.1857 292.35 24.4938ZM303.191 32.5847C304.278 31.8234 304.548 30.3173 303.793 29.2231C303.037 28.1273 301.543 27.8571 300.456 28.62C299.369 29.383 299.099 30.8874 299.854 31.9816C300.61 33.0774 302.104 33.3477 303.191 32.5847Z" fill="#FFB6A9"/>
<path d="M303.194 32.5936C304.281 31.8321 304.549 30.3267 303.794 29.2312C303.038 28.1356 301.545 27.8648 300.458 28.6262C299.371 29.3876 299.102 30.893 299.858 31.9886C300.613 33.0841 302.107 33.355 303.194 32.5936Z" fill="white"/>
<path d="M340.43 46.7878C334.946 50.6305 327.411 49.2661 323.602 43.7409C319.793 38.2157 321.15 30.624 326.633 26.7813C332.116 22.9385 339.651 24.3029 343.461 29.8281C347.27 35.3534 345.913 42.945 340.43 46.7878ZM342.231 39.4862C343.891 38.3228 344.303 36.024 343.148 34.3531C341.996 32.6806 339.715 32.2686 338.054 33.4303C336.395 34.5937 335.983 36.8924 337.137 38.5634C338.29 40.2359 340.57 40.6479 342.231 39.4862Z" fill="#FFB6A9"/>
<path d="M342.234 39.4978C343.894 38.3349 344.305 36.0363 343.151 34.3638C341.998 32.6914 339.718 32.2783 338.058 33.4412C336.397 34.6041 335.987 36.9027 337.14 38.5752C338.293 40.2477 340.574 40.6607 342.234 39.4978Z" fill="white"/>
<path d="M348.879 73.7383C345.096 76.388 339.898 75.4471 337.271 71.6373C334.644 67.8258 335.579 62.589 339.362 59.9376C343.145 57.2879 348.342 58.2288 350.97 62.0386C353.597 65.8501 352.662 71.0869 348.879 73.7383ZM350.448 68.2889C351.537 67.5259 351.807 66.0181 351.05 64.9207C350.293 63.8232 348.797 63.553 347.706 64.3159C346.618 65.0789 346.348 66.5866 347.105 67.6841C347.862 68.7816 349.358 69.0518 350.448 68.2889Z" fill="#FFB6A9"/>
<path d="M350.451 68.2973C351.54 67.5343 351.81 66.0265 351.053 64.9294C350.297 63.8324 348.8 63.5615 347.711 64.3245C346.622 65.0875 346.352 66.5954 347.109 67.6924C347.865 68.7895 349.362 69.0603 350.451 68.2973Z" fill="white"/>
<path d="M30.8774 59.3214C34.1438 61.0747 36.3051 64.1018 36.3051 68.2972C36.3051 75.0946 31.7209 80.3528 23.5532 80.3528C19.1277 80.3528 15.6504 78.7067 12.9627 77.0077C11.5927 79.0263 9.64396 80.3528 6.79769 80.3528C2.47679 80.3528 0 77.273 0 73.7137C0 70.3686 2.31822 67.2871 6.32196 66.6494C6.90233 63.6223 6.95464 60.5952 8.27233 57.9932C6.48054 56.8776 5.11054 54.9661 5.11054 52.3642C5.11054 46.31 12.6979 42.3799 21.0765 42.3799C30.0861 42.3799 34.3024 46.8406 34.3024 51.939C34.3024 55.0732 32.7215 57.5153 30.8774 59.3214ZM16.9664 61.9233C16.597 64.1545 16.2814 66.6494 15.755 69.1458C17.1773 69.889 18.495 70.474 19.7588 70.474C21.5506 70.474 22.7097 69.3057 22.7097 67.2343C22.7097 65.9606 22.2879 64.7379 21.4982 63.8892C19.3386 63.8365 17.5991 63.0933 16.9664 61.9233ZM15.912 53.1601C17.6514 53.2656 19.0738 54.1158 19.7065 55.6566C18.9168 55.9746 18.3365 56.8776 17.8623 58.1003C18.652 57.5153 20.022 57.0919 22.1832 57.0375C22.8159 56.347 23.2377 55.4967 23.2377 54.3828C23.2377 52.8964 22.0786 51.7281 20.1282 51.7281C18.6536 51.7281 17.1773 52.206 15.9136 53.1617L15.912 53.1601Z" fill="#450A20"/>
<path d="M50.2144 77.166C48.318 79.0247 45.7349 80.3529 42.7317 80.3529C38.517 80.3529 35.3029 77.4313 35.3029 72.2274C35.3029 68.7224 37.5165 64.6325 37.5165 61.8707C37.5165 60.2245 36.9901 59.0034 35.092 59.0034C35.3029 55.711 37.9906 53.002 41.9944 53.002C45.9981 53.002 48.0008 55.8165 48.0008 59.1089C48.0008 63.1444 45.1022 67.6596 45.1022 70.5812C45.1022 71.9093 45.681 72.6525 46.6308 72.6525C49.0013 72.6525 50.9517 67.3415 50.9517 63.4114C50.9517 61.3401 50.0558 59.9592 48.3703 59.4813C48.7921 56.1889 51.689 53.002 55.4312 53.002C58.9085 53.002 61.6485 55.0733 61.6485 59.0561C61.6485 62.6138 59.3303 66.9691 59.3303 70.3159C59.3303 72.0692 60.0153 73.5028 62.7553 73.5028C62.2812 77.3275 59.5935 80.142 55.168 80.142C52.7974 80.142 51.1642 78.8666 50.2144 77.1676V77.166Z" fill="#450A20"/>
<path d="M61.5946 70.2087C61.5946 64.7379 65.1243 56.029 65.1243 51.4612C65.1243 49.815 64.5979 48.4341 62.7538 48.1688C62.9647 44.9818 65.8093 42.3799 69.6561 42.3799C72.8179 42.3799 75.5039 44.5567 75.5039 48.1688C75.5039 52.0461 73.2903 55.3385 72.0789 58.1531C73.8707 55.3913 76.7153 53.0019 80.1927 53.0019C84.7245 53.0019 87.4645 56.5596 87.4645 61.9777C87.4645 73.0776 80.0357 80.3528 71.6048 80.3528C65.1766 80.3528 61.593 76.2102 61.593 70.2087H61.5946ZM77.4559 63.7294C77.4559 60.9676 76.7709 60.1173 75.875 60.1173C73.6091 60.1173 70.8691 65.5882 70.8691 70.2614C70.8691 73.2885 72.1868 73.5011 72.6609 73.5011C75.5595 73.5011 77.4559 66.5439 77.4559 63.7294Z" fill="#450A20"/>
<path d="M85.9374 70.2087C85.9374 64.7379 89.4671 56.029 89.4671 51.4612C89.4671 49.815 88.9406 48.4341 87.0965 48.1688C87.3074 44.9818 90.1521 42.3799 93.9989 42.3799C97.1607 42.3799 99.8467 44.5567 99.8467 48.1688C99.8467 52.0461 97.6331 55.3385 96.4217 58.1531C98.2135 55.3913 101.058 53.0019 104.535 53.0019C109.067 53.0019 111.807 56.5596 111.807 61.9777C111.807 73.0776 104.379 80.3528 95.9476 80.3528C89.5194 80.3528 85.9358 76.2102 85.9358 70.2087H85.9374ZM101.799 63.7294C101.799 60.9676 101.114 60.1173 100.218 60.1173C97.9519 60.1173 95.2119 65.5882 95.2119 70.2614C95.2119 73.2885 96.5296 73.5011 97.0037 73.5011C99.9023 73.5011 101.799 66.5439 101.799 63.7294Z" fill="#450A20"/>
<path d="M123.928 73.5011C123.558 76.9533 120.029 80.1403 115.76 80.1403C111.492 80.1403 109.806 76.688 109.806 73.5011C109.806 68.0303 114.284 57.3028 114.284 51.2486C114.284 49.3371 113.23 48.2742 111.913 48.1688C112.072 45.1417 114.917 42.3799 118.711 42.3799C121.978 42.3799 124.77 44.4512 124.77 48.8592C124.77 54.3301 120.501 65.9606 120.501 70.3158C120.501 73.1303 122.241 73.5028 123.926 73.5028L123.928 73.5011Z" fill="#450A20"/>
<path d="M143.108 67.2881C145.268 67.766 146.427 69.3595 146.427 71.2182C146.427 75.3609 140.895 80.3539 133.729 80.3539C127.353 80.3539 122.347 76.4238 122.347 69.1485C122.347 60.6506 129.302 53.0029 138.313 53.0029C142.739 53.0029 147.06 55.1797 147.06 60.12C147.06 62.1386 146.164 65.2184 143.108 67.2898V67.2881ZM134.36 69.4649C133.623 69.4649 132.885 69.4122 132.094 69.3595C132.253 71.3781 133.042 72.6518 135.097 72.6518C137.363 72.6518 139.207 71.0584 140.103 68.669C138.522 69.1469 136.626 69.4649 134.36 69.4649ZM132.307 65.9072C135.416 65.7474 137.68 64.5263 137.68 62.0826C137.68 60.8615 137.102 60.1183 136.152 60.1183C134.412 60.1183 132.885 62.773 132.305 65.9072H132.307Z" fill="#450A20"/>
<path d="M187.215 80.8487C185.911 81.0917 184.681 81.0422 183.52 80.6984C182.359 80.3547 181.392 79.7806 180.615 78.9748C179.838 78.1689 179.338 77.1984 179.114 76.0648C178.922 75.0926 178.983 74.1589 179.295 73.2603C179.607 72.3617 180.088 71.5591 180.738 70.8491C181.389 70.1408 182.111 69.6132 182.906 69.2694C182.779 69.2087 182.691 69.1623 182.642 69.1303C182.592 69.0983 182.52 69.0616 182.426 69.0232L180.119 67.816C179.627 69.1111 178.902 70.2831 177.945 71.3288C176.988 72.3745 175.858 73.2507 174.561 73.9542C173.262 74.6593 171.823 75.1582 170.243 75.454C167.971 75.8793 165.923 75.8409 164.099 75.3421C162.276 74.8432 160.763 73.9494 159.561 72.6639C158.359 71.3768 157.566 69.7619 157.184 67.8192C156.929 66.5241 156.939 65.2626 157.215 64.0362C157.491 62.8098 157.983 61.6682 158.696 60.6113C159.407 59.5545 160.291 58.6351 161.343 57.85C160.852 57.5494 160.409 57.1929 160.011 56.7772C159.614 56.363 159.277 55.893 159.001 55.3701C158.726 54.8489 158.533 54.3036 158.422 53.736C158.194 52.5752 158.297 51.4656 158.735 50.4039C159.174 49.3422 159.855 48.4325 160.783 47.6714C161.711 46.9103 162.813 46.4114 164.087 46.1732C165.473 45.9142 166.729 45.9462 167.856 46.2659C168.982 46.5873 169.93 47.1661 170.698 48.0024C171.467 48.8386 171.976 49.8907 172.226 51.1586C172.449 52.2922 172.352 53.3747 171.938 54.4028C171.523 55.4325 170.841 56.3151 169.895 57.0506L176.717 60.6033L176.759 60.3859C177.002 59.1372 177.287 58.0275 177.613 57.057C177.94 56.0864 178.351 55.255 178.847 54.5595C179.343 53.8656 179.998 53.2883 180.812 52.8279C181.627 52.3674 182.643 52.0236 183.863 51.7966L186.732 51.2609L187.586 55.594L185.008 56.0752C184.287 56.2095 183.719 56.4286 183.305 56.7292C182.89 57.0314 182.568 57.4407 182.339 57.9587C182.111 58.4784 181.921 59.1148 181.768 59.871C181.615 60.6273 181.443 61.5419 181.252 62.6116L181.192 62.9585L181.472 63.0737C183.909 64.2137 185.924 65.3201 187.515 66.3946C189.107 67.4691 190.333 68.5547 191.197 69.6532C192.061 70.7516 192.614 71.9204 192.859 73.1628C193.104 74.4035 193.03 75.5659 192.64 76.6452C192.25 77.726 191.588 78.6326 190.655 79.3665C189.722 80.1004 188.576 80.5945 187.218 80.8487H187.215ZM169.562 70.4622C170.477 70.2911 171.317 70.0017 172.084 69.5924C172.851 69.1831 173.534 68.6363 174.132 67.9503C174.73 67.266 175.217 66.425 175.597 65.4305L165.45 60.1045C164.875 60.5474 164.353 61.0654 163.88 61.657C163.407 62.2486 163.062 62.909 162.847 63.6349C162.631 64.3608 162.614 65.1826 162.795 66.1004C162.992 67.0997 163.414 67.9647 164.061 68.697C164.708 69.4309 165.509 69.9586 166.465 70.2847C167.419 70.6109 168.452 70.6685 169.56 70.4622H169.562ZM165.851 54.9096C166.219 54.5883 166.504 54.2557 166.71 53.9103C166.915 53.565 167.05 53.2308 167.117 52.911C167.183 52.5912 167.192 52.3098 167.145 52.0668C167.045 51.5551 166.792 51.1458 166.386 50.8436C165.982 50.5414 165.503 50.4423 164.948 50.5462C164.586 50.6134 164.286 50.7605 164.043 50.9875C163.8 51.2146 163.629 51.4784 163.53 51.7758C163.43 52.0748 163.415 52.3994 163.484 52.7495C163.553 53.1013 163.698 53.3955 163.918 53.6337C164.138 53.8719 164.419 54.0926 164.76 54.2957C165.102 54.4987 165.465 54.7034 165.851 54.9112V54.9096ZM186.418 76.5908C186.918 76.4981 187.304 76.2359 187.579 75.8074C187.854 75.3788 187.928 74.84 187.799 74.1925C187.726 73.8135 187.588 73.4474 187.389 73.094C187.19 72.7391 186.903 72.4145 186.528 72.1219C185.995 72.3329 185.537 72.5936 185.152 72.9037C184.768 73.2139 184.492 73.5657 184.326 73.9606C184.159 74.3555 184.121 74.7825 184.211 75.2413C184.312 75.7546 184.581 76.1303 185.016 76.3718C185.451 76.6116 185.919 76.6868 186.417 76.5924L186.418 76.5908Z" fill="#FFB6A9"/>
<path d="M227.915 54.4309C228.992 55.9514 229.637 57.8507 229.637 60.0768C229.637 68.4916 223.82 73.4319 215.096 73.4319C213.373 73.4319 211.811 73.1612 210.411 72.5636C210.303 72.8358 210.249 73.1612 210.249 73.4319C210.249 74.3549 210.842 75.0057 212.619 75.0057C214.88 75.0057 217.736 73.92 220.59 73.92C224.092 73.92 227.43 75.874 227.43 80.4889C227.43 85.1038 224.306 88.0355 219.62 88.4142C219.62 86.8403 218.382 86.1348 216.873 86.1348C215.042 86.1348 212.619 87.003 209.872 87.003C204.002 87.003 201.739 83.0404 201.739 79.2405C201.739 75.0057 204.541 72.0208 207.125 70.4455C205.563 68.817 204.648 66.6456 204.648 63.9847C204.648 56.7103 210.411 50.4135 219.298 50.4135C221.183 50.4135 222.96 50.7937 224.467 51.554C223.929 49.708 222.475 48.7317 220.375 48.7317C219.675 48.7317 218.92 48.8397 218.113 49.0571C217.79 48.1889 217.629 47.3206 217.629 46.5056C217.629 42.5977 220.969 39.5566 224.739 39.5566C228.832 39.5566 231.74 42.2709 231.74 46.3429C231.74 49.5453 230.34 52.4237 227.916 54.4309H227.915ZM220.052 60.3489C220.052 57.6894 218.975 57.1466 218.22 57.1466C216.066 57.1466 214.612 61.2186 214.612 64.2583C214.612 66.2122 215.258 67.5153 216.605 67.5153C219.029 67.5153 220.052 62.9551 220.052 60.3489Z" fill="#A81B4F"/>
<path d="M241.972 71.3685C241.595 74.8977 237.986 78.1548 233.623 78.1548C229.26 78.1548 227.538 74.6256 227.538 71.3685C227.538 65.7774 232.116 54.811 232.116 48.6223C232.116 46.6683 231.039 45.5827 229.692 45.4732C229.853 42.3789 232.762 39.5566 236.639 39.5566C239.979 39.5566 242.833 41.6733 242.833 46.1802C242.833 51.7714 238.47 63.6607 238.47 68.1115C238.47 70.9884 240.247 71.3685 241.972 71.3685Z" fill="#A81B4F"/>
<path d="M240.463 67.0805C240.463 58.5577 246.98 50.415 256.028 50.415C262.114 50.415 266.584 53.9442 266.584 61.4346C266.584 70.2296 260.39 78.3723 251.45 78.3723C244.987 78.3723 240.463 74.1375 240.463 67.0805ZM257.105 61.4346C257.105 58.8831 256.405 57.6894 255.058 57.6894C252.366 57.6894 250.211 62.7925 250.211 66.8098C250.211 69.4161 251.127 70.5018 252.366 70.5018C255.004 70.5018 257.105 65.8336 257.105 61.4361V61.4346Z" fill="#A81B4F"/>
<path d="M280.264 69.74C279.671 67.4059 279.402 64.8544 279.402 62.1402C279.402 55.0832 281.934 50.415 286.726 50.415C290.012 50.415 292.005 53.2919 292.005 56.3863C292.005 59.6434 290.874 63.498 289.151 66.9725C289.151 69.2519 289.689 70.7724 290.874 70.7724C293.459 70.7724 294.913 66.3749 294.913 62.9004C294.913 59.8608 293.943 57.9601 292.328 57.1998C292.921 53.8333 295.668 50.4136 300.352 50.4136C303.638 50.4136 306.169 52.9104 306.169 57.4158C306.169 66.8069 298.898 78.1534 288.558 78.1534C285.865 78.1534 283.872 76.905 282.418 74.7869C280.048 76.9035 277.194 78.1534 273.747 78.1534C268.145 78.1534 266.152 74.244 266.152 70.064C266.152 66.8069 267.93 62.3547 267.93 60.0206C267.93 57.6865 266.852 56.5461 264.967 56.5461C265.505 52.6915 268.845 50.4121 272.454 50.4121C276.278 50.4121 279.025 53.0716 279.025 56.5461C279.025 60.0206 276.387 65.4491 276.387 68.3807C276.387 69.6838 276.871 70.7695 278.218 70.7695C278.811 70.7695 279.564 70.3894 280.265 69.7385L280.264 69.74Z" fill="#A81B4F"/>
</svg>
