<svg width="279" height="284" viewBox="0 0 279 284" fill="none" xmlns="http://www.w3.org/2000/svg">
<path d="M139.5 5C213.699 5 274 66.2529 274 142C274 217.747 213.699 279 139.5 279C65.3011 279 5 217.747 5 142C5 66.2529 65.3011 5 139.5 5Z" stroke="#DD477E" stroke-width="10"/>
<path d="M164.237 97.5517C165.16 95.219 165.297 92.0365 168.383 91.4605C173.185 90.5651 172.921 97.3749 175.543 99.93C178.209 102.525 185.457 102.248 184.162 107.139C183.322 110.313 179.325 110.056 176.92 111.605C173.319 113.923 175.549 115.343 176.478 118.466C179.255 127.811 179.838 143.96 178.956 153.73C178.816 155.29 178.423 156.929 176.539 157.004C174.749 157.075 174.075 155.874 173.858 154.312C172.842 147.003 174.356 137.427 173.826 129.759C173.598 126.439 172.628 123.183 171.907 119.954C170.425 121.36 168.57 121.603 166.809 120.408C164.978 119.165 164.7 114.713 162.526 112.597C159.93 110.071 152.925 110.282 153.819 105.631C154.457 102.3 158.166 102.747 160.399 101.128C155.849 96.3968 149.951 92.4044 143.775 89.932C117.694 79.4863 87.6784 92.9862 78.8715 118.854C74.2219 132.513 77.2454 148.454 76.2581 162.673C75.6985 165.037 71.1427 164.595 71.5177 161.82C71.9894 141.103 68.2949 121.948 81.1831 103.985C99.1515 78.9416 134.857 74.4046 159.28 93.5137C160.592 94.5403 162.086 96.3312 163.44 97.2437C163.71 97.4262 163.759 97.6743 164.24 97.5488L164.237 97.5517ZM169.352 98.487C168.719 97.9082 168.242 100.09 168.022 100.455C167.044 102.063 165.634 103.629 164.032 104.661C163.42 105.054 161.164 105.847 161.046 105.958C160.56 106.42 161.187 106.495 161.457 106.646C162.224 107.073 163.185 107.342 164.02 107.883C166.513 109.495 167.536 111.188 168.881 113.732L172.54 108.899C172.974 108.089 176.565 106.763 176.706 106.572C177.233 105.87 174.526 104.975 174.046 104.652C171.725 103.104 170.179 101.142 169.349 98.4842L169.352 98.487Z" fill="#DD477E"/>
<path d="M67.0557 240.999C65.541 239.99 63.7685 238.858 63.3612 236.973C63.0126 235.353 62.9862 229.778 63.2059 228.076C63.4521 226.148 65.2422 225.555 66.9825 226.273C67.2022 226.365 68.0137 227.388 68.0137 227.465V235.866C68.0137 235.901 68.4591 236.334 68.4942 236.334H89.914C89.9696 236.334 90.7138 235.61 90.7138 235.556V216.886C90.7138 216.851 90.2685 216.418 90.2333 216.418H68.0137C67.9434 218.303 68.6202 220.453 66.3115 221.169C64.5947 221.702 63.3554 220.433 63.1942 218.771C62.954 216.284 62.8837 209.334 63.2938 207.002C63.5839 205.348 64.8642 203.765 66.4287 203.141L66.4023 172.995C68.0225 165.213 78.4409 169.297 83.1373 171.98C85.613 173.395 92.3105 178.465 92.3105 181.411V196.813L108.301 192.618C109.028 192.028 108.448 184.77 108.562 183.33C98.5627 177.113 91.2412 168.13 87.5262 157.112C85.153 157.608 78.8042 157.844 80.6499 153.878C81.4498 152.161 86.6502 152.549 88.5955 152.281C106.426 149.811 125.619 135.924 134.962 121.175C136.199 119.221 137.64 115.454 138.812 114.031C139.984 112.608 142.501 112.694 143.063 114.59C143.781 117.008 143.684 120.941 144.203 123.75C145.999 133.465 151.249 144.47 161.372 148.112C163.666 148.936 172.2 149.284 169.496 153.233C168.21 155.11 165.479 153.607 163.636 153.906C162.989 156.664 162.034 159.362 160.877 161.954C160.003 163.904 158.301 168.538 155.603 167.748C151.985 166.69 155.492 162.233 156.309 160.305C156.886 158.942 159.412 153.068 158.758 152.053C158.624 151.842 155.035 150.279 154.235 149.769C145.551 144.208 140.928 133.357 139.304 123.69C136.366 127.112 133.802 130.833 130.685 134.121C120.51 144.858 107.302 153.079 92.624 156.541C97.968 171.447 113.554 186.581 131.063 182.409C136.586 181.091 141.739 177.772 146.028 174.259C147.628 172.95 149.415 169.753 151.797 171.436C152.861 172.186 153.101 173.452 152.433 174.581C152.081 175.174 148.542 178.428 147.772 179.067C145.976 180.552 143.857 181.679 142.023 183.119L141.845 192.578C150.192 195.07 160.159 195.521 165.684 203.035C168.248 201.575 168.664 196.063 172.326 196.878C177.471 198.025 168.769 206.189 168.731 207.544C168.72 207.971 169.64 209.745 169.833 210.504C170.899 214.696 171.638 222.198 171.529 226.527C171.5 227.719 170.527 229.482 169.194 229.482H95.504V236.482C95.504 238.362 92.8144 240.612 91.0273 240.994H67.0498L67.0557 240.999ZM87.5145 182.497C84.4587 177.364 77.3657 173.264 71.2131 173.167C72.2209 175.961 75.2503 178.171 77.8285 179.64C80.6734 181.262 84.1569 182.8 87.5174 182.497H87.5145ZM87.5145 187.168C81.441 187.482 75.9154 184.317 71.2102 180.946V202.727H87.5145V187.168ZM137.069 185.611C129.226 188.48 121.245 188.563 113.411 185.611V193.858C113.411 194.651 112.049 196.331 111.258 196.741C108.252 198.301 101.229 199 97.5021 200.155C96.6291 200.426 92.0937 201.92 92.3135 202.878C92.3721 203.132 95.5099 205.333 95.5099 206.928V224.508H166.481C165.916 216.315 166.461 208.958 159.28 203.354C153.555 198.886 146.151 199.502 139.858 197.052C138.912 196.684 137.069 195.544 137.069 194.477V185.608V185.611ZM67.9991 207.395V211.753H90.7284V207.395H67.9991Z" fill="#DD477E"/>
<path d="M187.693 223.465C186.714 222.541 185.967 221.129 185.419 219.923C182.226 212.894 178.731 202.921 176.29 195.515C176.018 194.686 176.22 193.77 175.909 193.086C174.781 190.605 163.235 182.324 160.566 179.081C157.422 175.263 157.58 169.856 161.902 166.993C164.887 165.014 179.853 159.924 183.893 158.837C191.71 156.735 195.703 161.278 195.255 168.65C194.891 174.615 193.233 180.963 192.776 186.975C194.08 188.375 194.584 190.245 195.263 191.985C197.809 198.518 201.012 206.152 203.016 212.754C203.889 215.628 204.334 217.003 203.259 220.006C201.012 226.282 192.562 228.059 187.696 223.462L187.693 223.465ZM167.105 170.061C163.323 170.241 161.89 173.771 164.55 176.443C167.802 179.711 173.905 185.363 177.521 188.092C177.863 188.352 178.517 188.894 178.874 188.979C179.484 189.122 187.807 186.336 188.077 185.939C188.739 178.953 190.388 172.003 190.394 164.985C188.815 162.524 186.934 162.718 184.385 163.525C184.722 165.037 185.73 166.348 186.152 167.871C186.574 169.394 187.239 173.056 187.277 174.584C187.321 176.415 185.859 177.698 183.975 177.148C181.936 176.552 182.021 170.663 181.42 168.744C181.285 168.31 180.037 165.869 179.85 165.761C179.243 165.416 172.347 167.774 172.065 168.176C170.46 170.475 176.129 176.267 176.387 178.331C176.63 180.279 175.018 181.782 173.12 180.878C170.975 179.857 167.433 172.559 167.111 170.064L167.105 170.061ZM190.098 191.874C189.228 191.326 182.686 194.229 181.315 194.623L182.475 198.669C183.108 199.203 190.122 196.04 191.414 195.878C191.214 195.304 190.277 191.988 190.095 191.874H190.098ZM193.33 200.238C192.257 200.711 185.03 202.733 184.734 203.067C184.602 203.215 184.701 203.571 184.696 203.8L190.391 219.127C192.287 222.29 197.188 222.019 198.606 218.594C199.459 216.538 198.823 215.648 198.217 213.686C196.813 209.146 194.513 204.855 193.33 200.235V200.238Z" fill="#DD477E"/>
<path d="M208.679 130.215C209.423 130.54 211.14 131.091 211.937 131.242C228.965 134.518 236.339 110.008 219.83 104.068C202.257 97.743 192.266 122.997 208.679 130.215ZM214.319 113.564C213.613 115.689 211.266 116.855 209.08 116.165C206.892 115.472 205.694 113.193 206.406 111.066C207.112 108.939 209.458 107.775 211.644 108.465C213.83 109.153 215.028 111.437 214.319 113.564Z" fill="#DD477E"/>
<path d="M165.584 57.118C162.01 67.8403 168.054 79.3526 179.076 82.8288C190.098 86.3078 201.928 80.4334 205.497 69.7111C209.065 58.9887 203.027 47.4765 192.005 44.0003C180.983 40.5241 169.153 46.3986 165.584 57.118ZM184.194 56.7644C183.116 60.0096 179.536 61.7891 176.199 60.7368C172.859 59.6817 171.034 56.1998 172.112 52.9517C173.193 49.7065 176.773 47.9299 180.11 48.9793C183.447 50.0316 185.275 53.5192 184.194 56.7616V56.7644Z" fill="#DD477E"/>
<path d="M231.19 85.3991C233.294 82.5054 232.591 78.5 229.619 76.4528C226.648 74.4056 222.533 75.0919 220.429 77.9856C218.324 80.8793 219.028 84.8847 221.999 86.9319C224.971 88.9791 229.086 88.2929 231.19 85.3991Z" fill="#DD477E"/>
</svg>
