<svg width="239" height="260" viewBox="0 0 239 260" fill="none" xmlns="http://www.w3.org/2000/svg">
<path d="M140.252 71.4507C141.531 68.3954 141.722 64.2271 145.996 63.4726C152.648 62.2998 152.283 71.2191 155.916 74.5658C159.609 77.9647 169.651 77.6024 167.857 84.008C166.692 88.1651 161.156 87.829 157.823 89.8571C152.835 92.8937 155.924 94.7538 157.21 98.8437C161.058 111.084 161.866 132.235 160.644 145.032C160.449 147.075 159.906 149.222 157.296 149.319C154.816 149.413 153.882 147.84 153.582 145.794C152.173 136.221 154.272 123.678 153.537 113.635C153.221 109.287 151.877 105.022 150.879 100.793C148.825 102.635 146.255 102.952 143.816 101.387C141.279 99.7588 140.894 93.9284 137.882 91.1569C134.286 87.8477 124.581 88.1241 125.819 82.0322C126.704 77.6696 131.842 78.256 134.935 76.1345C128.632 69.938 120.461 64.7089 111.905 61.4706C75.7727 47.7891 34.1893 65.4709 21.9882 99.3517C15.5468 117.243 19.7356 138.122 18.3677 156.745C17.5925 159.841 11.2809 159.262 11.8004 155.628C12.4539 128.493 7.33561 103.404 25.1907 79.877C50.0839 47.0757 99.5497 41.1332 133.385 66.1619C135.203 67.5065 137.273 69.8521 139.148 71.0473C139.522 71.2864 139.591 71.6113 140.256 71.447L140.252 71.4507ZM147.339 72.6758C146.462 71.9176 145.801 74.7749 145.496 75.253C144.141 77.3596 142.188 79.4101 139.968 80.7622C139.12 81.2777 135.995 82.316 135.832 82.4617C135.158 83.0668 136.027 83.1639 136.4 83.3618C137.464 83.9221 138.795 84.2732 139.952 84.9829C143.406 87.0932 144.823 89.3118 146.686 92.6435L151.755 86.3125C152.356 85.2518 157.332 83.515 157.527 83.2647C158.258 82.3459 154.507 81.1731 153.842 80.751C150.627 78.7229 148.484 76.1532 147.335 72.6721L147.339 72.6758Z" fill="#DD477E"/>
<path d="M5.61872 259.336C3.52027 258.014 1.06462 256.531 0.500429 254.062C0.01742 251.94 -0.0190972 244.638 0.28532 242.408C0.626268 239.884 3.10626 239.107 5.51725 240.048C5.82166 240.167 6.94596 241.508 6.94596 241.609V252.613C6.94596 252.657 7.56292 253.225 7.61163 253.225H37.2862C37.3633 253.225 38.3943 252.276 38.3943 252.206V227.752C38.3943 227.707 37.7774 227.139 37.7287 227.139H6.94596C6.84855 229.608 7.78615 232.425 4.58774 233.362C2.20923 234.061 0.492308 232.398 0.269069 230.221C-0.0637609 226.964 -0.161164 217.862 0.407082 214.806C0.808913 212.64 2.58266 210.567 4.75011 209.749L4.71357 170.266C6.95814 160.073 21.3916 165.421 27.898 168.936C31.3278 170.788 40.6064 177.429 40.6064 181.288V201.461L62.7599 195.967C63.7665 195.193 62.9628 185.688 63.1211 183.801C49.2681 175.659 39.1249 163.894 33.9782 149.461C30.6905 150.111 21.8949 150.421 24.452 145.226C25.5601 142.977 32.7646 143.485 35.4597 143.134C60.1622 139.9 86.752 121.71 99.6959 102.392C101.409 99.8334 103.406 94.8994 105.029 93.0356C106.653 91.1718 110.139 91.2838 110.919 93.7677C111.913 96.935 111.779 102.086 112.498 105.765C114.986 118.49 122.259 132.904 136.283 137.673C139.461 138.753 151.284 139.208 147.538 144.382C145.756 146.839 141.973 144.871 139.42 145.263C138.523 148.875 137.2 152.408 135.597 155.803C134.387 158.358 132.029 164.428 128.291 163.393C123.278 162.007 128.137 156.169 129.269 153.645C130.069 151.859 133.567 144.165 132.662 142.835C132.476 142.559 127.503 140.512 126.395 139.843C114.365 132.56 107.96 118.348 105.711 105.686C101.64 110.168 98.0885 115.043 93.7699 119.349C79.6733 133.412 61.3758 144.18 41.0407 148.714C48.4441 168.237 70.0375 188.059 94.2935 182.595C101.944 180.869 109.084 176.522 115.026 171.92C117.242 170.206 119.718 166.019 123.018 168.223C124.492 169.205 124.824 170.863 123.899 172.342C123.412 173.119 118.509 177.381 117.441 178.218C114.953 180.164 112.019 181.639 109.478 183.525L109.23 195.914C120.794 199.179 134.602 199.769 142.257 209.611C145.809 207.698 146.385 200.479 151.459 201.547C158.586 203.048 146.531 213.742 146.479 215.516C146.462 216.076 147.737 218.399 148.005 219.393C149.482 224.883 150.505 234.71 150.355 240.38C150.314 241.942 148.967 244.25 147.12 244.25H45.0306V253.419C45.0306 255.881 41.3045 258.828 38.8286 259.328H5.61059L5.61872 259.336ZM33.962 182.711C29.7286 175.988 19.902 170.617 11.3783 170.49C12.7746 174.15 16.9714 177.045 20.5433 178.968C24.4845 181.094 29.3105 183.107 33.966 182.711H33.962ZM33.962 188.829C25.5479 189.24 17.8928 185.094 11.3742 180.679V209.207H33.962V188.829ZM102.614 186.79C91.7485 190.547 80.6921 190.655 69.8386 186.79V197.591C69.8386 198.63 67.9512 200.83 66.8553 201.368C62.6909 203.411 52.9617 204.326 47.7988 205.838C46.5892 206.193 40.306 208.15 40.6105 209.405C40.6916 209.738 45.0387 212.621 45.0387 214.709V237.736H143.361C142.578 227.005 143.333 217.369 133.385 210.029C125.454 204.176 115.197 204.983 106.478 201.775C105.167 201.293 102.614 199.799 102.614 198.402V186.786V186.79ZM6.92567 215.322V221.029H38.4146V215.322H6.92567Z" fill="#DD477E"/>
<path d="M172.748 236.369C171.392 235.159 170.357 233.31 169.598 231.73C165.174 222.523 160.332 209.462 156.951 199.762C156.573 198.675 156.853 197.476 156.423 196.579C154.86 193.33 138.864 182.483 135.166 178.236C130.811 173.235 131.03 166.153 137.017 162.403C141.153 159.811 161.886 153.144 167.483 151.721C178.312 148.968 183.845 154.918 183.224 164.574C182.72 172.387 180.423 180.702 179.79 188.575C181.596 190.409 182.294 192.859 183.236 195.138C186.763 203.695 191.199 213.693 193.976 222.34C195.185 226.105 195.802 227.905 194.313 231.838C191.2 240.059 179.494 242.386 172.752 236.365L172.748 236.369ZM144.226 166.422C138.986 166.658 137.001 171.282 140.686 174.781C145.192 179.062 153.647 186.465 158.655 190.039C159.13 190.379 160.035 191.089 160.53 191.201C161.375 191.388 172.906 187.738 173.279 187.219C174.197 178.068 176.482 168.966 176.49 159.774C174.302 156.551 171.696 156.805 168.165 157.862C168.632 159.841 170.028 161.559 170.613 163.554C171.197 165.548 172.119 170.344 172.171 172.346C172.232 174.744 170.207 176.425 167.597 175.704C164.772 174.923 164.89 167.21 164.058 164.697C163.871 164.129 162.142 160.932 161.882 160.79C161.042 160.338 151.487 163.427 151.098 163.954C148.873 166.964 156.727 174.55 157.084 177.254C157.421 179.805 155.189 181.774 152.559 180.59C149.588 179.252 144.68 169.694 144.234 166.426L144.226 166.422ZM176.08 194.992C174.875 194.275 165.811 198.077 163.912 198.593L165.519 203.893C166.396 204.591 176.113 200.449 177.903 200.236C177.627 199.485 176.328 195.141 176.076 194.992H176.08ZM180.557 205.947C179.072 206.567 169.058 209.215 168.648 209.652C168.466 209.846 168.604 210.313 168.595 210.612L176.486 230.688C179.112 234.83 185.903 234.475 187.867 229.99C189.048 227.297 188.167 226.131 187.327 223.561C185.383 217.615 182.197 211.994 180.557 205.943V205.947Z" fill="#DD477E"/>
<path d="M201.822 114.232C202.853 114.658 205.231 115.379 206.335 115.577C229.926 119.868 240.142 87.7656 217.27 79.9854C192.925 71.701 179.084 104.779 201.822 114.232ZM209.635 92.4232C208.657 95.2058 205.406 96.7335 202.378 95.8296C199.346 94.922 197.686 91.9376 198.672 89.1513C199.65 86.3649 202.901 84.841 205.929 85.7449C208.957 86.6451 210.617 89.6368 209.635 92.4232Z" fill="#DD477E"/>
<path d="M142.119 18.4915C137.168 32.5353 145.541 47.6138 160.811 52.1669C176.08 56.7236 192.47 49.0294 197.414 34.9856C202.358 20.9417 193.992 5.86323 178.723 1.31018C163.453 -3.24287 147.063 4.45137 142.119 18.4915ZM167.902 18.0283C166.408 22.2789 161.448 24.6095 156.825 23.2313C152.198 21.8493 149.669 17.2888 151.163 13.0346C152.66 8.78405 157.62 6.4571 162.244 7.83161C166.867 9.20985 169.399 13.7778 167.902 18.0246V18.0283Z" fill="#DD477E"/>
<path d="M233.008 55.5333C235.923 51.7432 234.949 46.497 230.832 43.8156C226.715 41.1342 221.015 42.0331 218.1 45.8232C215.184 49.6133 216.159 54.8595 220.276 57.5409C224.393 60.2222 230.093 59.3234 233.008 55.5333Z" fill="#DD477E"/>
</svg>
