<svg width="237" height="172" viewBox="0 0 237 172" fill="none" xmlns="http://www.w3.org/2000/svg">
<path d="M115.453 73.8221C116.103 73.1411 114.919 58.9569 116.059 55.7421C117.184 52.5741 120.854 50.421 124.452 50.698C129.915 51.1187 134.254 59.1438 142.331 59.7814C153.08 60.6327 164.813 56.6335 172.186 66.241C174.037 68.6545 174.24 72.1931 175.217 73.525C175.547 73.9724 176.509 74.1059 177.032 74.5432C181.729 78.4657 179.715 81.9842 178.041 86.8881C175.369 94.723 170.871 100.839 161.789 103.169C155.512 104.781 135.136 104.691 128.826 103.089C120.495 100.969 115.917 95.4607 113.216 88.2301C111.427 83.443 108.682 77.8648 113.99 74.3195C114.433 74.0224 115.373 73.9023 115.449 73.8255L115.453 73.8221ZM169.183 73.1979C166.885 60.6961 149.958 65.9272 140.251 64.7154C136.13 64.2013 131.738 61.3504 128.482 59.0837C126.837 57.9387 124.71 54.8542 122.336 56.1394C122.009 56.3163 121.348 56.9906 121.348 57.2477V73.1979H169.18H169.183ZM117.965 78.3087C116.309 78.6359 116.466 79.7175 116.694 81.0094C117.972 88.2467 122.158 96.2652 130.485 98.2114C135.132 99.2964 152.782 99.1962 158.046 98.7155C165.931 97.9978 170.356 92.2293 172.57 85.8799C173.322 83.7301 176.135 77.8314 171.942 78.2186L117.968 78.3087H117.965Z" fill="#DD477E"/>
<path d="M102.605 42.7563C104.272 44.2752 108.221 50.4743 108.537 52.5774C109.953 61.978 96.2053 66.2843 90.9741 58.6597C88.2188 54.6438 89.5221 51.349 91.8454 47.5801C93.94 44.1851 97.9478 38.5034 102.605 42.7596V42.7563ZM98.3906 47.3865C98.1547 47.5133 95.8059 51.2588 95.6099 51.7095C92.5351 58.7799 103.52 59.1672 103.081 53.5956C102.994 52.5007 100.38 48.0007 99.4507 47.5033C99.1457 47.3397 98.692 47.2229 98.3906 47.3865Z" fill="#DD477E"/>
<path d="M93.5986 0C95.352 0.978109 96.2596 2.94768 94.5207 4.37312C92.9779 5.63832 88.6543 4.82378 86.4798 5.03743C82.443 5.43468 80.2722 9.05669 82.7008 12.208C84.9515 15.129 90.3968 12.2214 93.762 16.8115C96.5028 20.5503 93.1195 29.5603 97.5157 30.4816C104.01 31.8436 102.162 25.4842 103.451 21.9791C104.867 18.1301 110.04 13.767 114.603 13.767H127.93V5.03743H104.377C104.275 5.03743 103.001 3.85235 102.925 3.68878C102.133 1.98961 103.092 1.17173 104.195 0H161.157C173.917 3.17802 172.472 18.2102 158.797 19.1516C144.207 20.1564 128.387 18.2502 113.666 19.2884C104.751 21.8322 111.481 30.7921 103.484 34.7713C99.2037 36.9011 94.6115 35.9664 91.5948 32.5747C88.1425 28.6957 89.649 24.0655 89.0682 19.452C84.672 18.7042 81.256 18.7677 78.2828 15.2692C73.4401 9.57078 77.0631 2.08975 84.1165 0H93.6095H93.5986ZM160.238 5.03743H133.767V13.767H160.968C161.091 13.767 162.754 12.7388 162.983 12.5018C165.484 9.91129 164.01 5.61161 160.238 5.03743Z" fill="#DD477E"/>
<path d="M78.7549 136.878C83.7391 142.163 102.885 145.708 110.585 148.402C123.138 152.795 133.143 162.099 145.816 165.364C150.179 166.489 156.038 168.382 159.048 164.102C159.661 163.231 160.75 161.097 160.249 160.159C159.24 158.277 145.609 156.224 142.697 153.453L123.443 128.156C122.822 127.007 123.867 125.124 125.196 124.901C127.628 124.49 128.075 125.722 129.313 127.141C135.524 134.278 140.643 142.747 146.883 149.934C155.178 153.496 172.469 154.134 163.785 166.776C159.222 173.422 151.776 172.147 144.712 170.401C131.723 167.19 122.764 158.6 110.748 153.954C100.148 149.854 76.8744 147.07 72.2423 136.648C68.2091 127.568 75.4695 121.092 83.7428 117.673C72.5036 103.643 55.3618 95.3805 40.1766 85.5527C35.2613 82.3713 29.4494 78.7059 25.4997 74.5398C24.7119 73.7086 21.6662 69.4823 21.3032 69.3188C20.7986 69.0884 20.3412 69.1285 19.8329 69.3054L2.82904 74.5264C0.440367 74.5231 -0.859236 71.8058 0.64004 70.1433C2.12117 68.5009 15.8978 65.7535 18.7548 64.3014C19.9055 63.4167 17.1901 55.0611 21.9094 54.8274C25.9716 54.6238 24.3671 59.7847 24.5958 61.9446C25.3218 68.7846 33.8383 75.0105 39.4469 78.8428C50.7296 86.5542 63.2938 92.6799 74.0574 101.072C77.9018 104.07 87.0245 111.845 89.2316 115.66C92.7529 121.756 82.8243 123.081 79.3901 126.103C76.1883 128.92 75.8398 133.78 78.7585 136.875L78.7549 136.878Z" fill="#DD477E"/>
<path d="M30.357 12.1879C36.8224 11.8974 42.2024 14.3043 46.2864 18.831L121.011 116.318C122.699 119.636 118.586 121.786 116.248 119.022L96.5284 93.4977C90.9597 96.7292 86.1279 98.6019 79.5354 96.3753C75.8399 95.1268 73.8796 93.0337 71.549 90.2897C64.3721 81.8339 56.2368 70.9278 49.8512 61.8911C45.7273 56.0559 44.3551 52.8778 51.1291 48.0808C52.2 47.323 58.2624 43.9514 58.1354 43.2136L40.3002 20.3098C36.7934 17.5958 33.2394 17.2253 28.7924 17.4656C20.3449 17.923 11.3529 19.8224 2.85456 20.4934C-0.147618 20.4901 -1.18587 16.4107 1.78001 15.4593C11.1278 14.745 21.0564 12.6085 30.357 12.1912V12.1879ZM61.8273 47.6802C61.5078 47.4766 59.6129 48.8018 59.1627 49.0823C57.6417 50.0303 53.6303 52.3871 52.7082 53.5522C51.4848 55.0978 52.0039 55.5952 52.9224 57.0473C59.6564 67.7031 70.0497 77.9048 77.0197 88.6106C80.0074 91.9254 84.8428 93.184 89.2208 91.4948C90.6366 90.9473 91.7039 89.6754 93.2358 89.3049L61.8309 47.6768L61.8273 47.6802Z" fill="#DD477E"/>
<path d="M175.398 137.766C179.442 136.516 181.62 132.491 180.263 128.776C178.906 125.06 174.527 123.061 170.482 124.31C166.438 125.56 164.26 129.585 165.617 133.3C166.975 137.016 171.354 139.015 175.398 137.766Z" fill="#DD477E"/>
<path d="M235.62 74.3429C231.779 63.8274 219.389 58.1691 207.947 61.7043C196.504 65.2395 190.344 76.6296 194.185 87.1451C198.025 97.6607 210.419 103.319 221.858 99.7838C233.3 96.2519 239.464 84.8584 235.62 74.3429ZM228.643 89.0613C225.179 90.1329 221.429 88.4203 220.268 85.2357C219.102 82.0543 220.968 78.6059 224.431 77.5343C227.895 76.4661 231.645 78.1786 232.81 81.3599C233.972 84.5446 232.106 87.9931 228.643 89.0613Z" fill="#DD477E"/>
<path d="M232.505 128.827C229.855 121.573 221.306 117.667 213.414 120.107C205.522 122.544 201.271 130.402 203.921 137.656C206.571 144.91 215.116 148.813 223.012 146.376C230.904 143.939 235.155 136.081 232.505 128.827ZM228.465 138.477C226.192 139.182 223.731 138.057 222.969 135.967C222.206 133.877 223.43 131.617 225.702 130.913C227.975 130.212 230.436 131.337 231.198 133.423C231.961 135.513 230.737 137.776 228.465 138.477Z" fill="#DD477E"/>
</svg>
