<svg width="280" height="188" viewBox="0 0 280 188" fill="none" xmlns="http://www.w3.org/2000/svg">
<path d="M203.715 5.84716C202.478 2.96388 200.508 1.14305 197.36 0L203.715 5.84716Z" fill="#DD477E"/>
<path d="M197.36 0C200.508 1.1425 202.477 2.96246 203.715 5.84434V13.1534C202.879 13.6771 202.995 14.3252 201.853 14.5303C194.447 15.8669 200.277 6.2325 195.959 5.48914L167.552 5.63928C166.402 6.02743 166.112 6.80375 165.98 7.84738C165.499 11.5971 165.594 20.4662 165.969 24.3148C166.167 26.3434 166.8 26.8305 168.778 27.5775C176.382 30.4484 186.27 31.4554 194.081 34.2567C201.319 35.7727 194.957 23.1723 199.62 22.3703C201.626 22.0261 202.529 22.3484 203.715 23.7472V34.3446C201.204 40.0828 196.158 40.881 190.214 39.094V58.2786C190.214 59.0695 188.53 61.3948 188.256 62.3249C187.257 65.7158 187.583 72.1057 186.979 76.1301C186.083 82.11 181.893 99.7455 176.684 103.199C174.07 104.934 171.201 104.971 168.396 103.565C166.709 102.719 160.067 97.585 159.427 96.1056C157.397 91.3928 162.28 89.2066 164.958 86.2003C170.986 79.4368 176.342 65.9611 172.733 57.5498L172.681 34.3959C167.095 33.0117 160.891 32.0743 160.067 25.7209C159.582 21.9785 159.471 9.67465 160.119 6.11898C160.66 3.14921 163.322 0.776318 166.378 0.00366544H197.356L197.36 0ZM178.694 36.1719V57.5462C178.694 59.3698 183.377 60.743 184.169 57.4693C183.867 54.9755 184.941 37.7904 184.022 37.2265C183.572 36.9482 178.949 35.9412 178.694 36.1719ZM181.873 65.0383C181.428 65.1079 180.015 64.9248 179.892 65.0457C179.736 65.1921 179.53 68.4585 179.382 69.147C177.826 76.511 174.766 83.8786 169.55 89.6973C168.877 90.4443 165.3 93.3812 165.224 93.7766C165.125 94.2966 170.97 98.8117 171.842 98.9692C172.343 99.0607 172.665 99.068 173.135 98.852C174.392 98.2771 177.635 89.5142 178.185 87.7748C180.473 80.539 181.758 72.5598 181.873 65.042V65.0383Z" fill="#DD477E"/>
<path d="M97.0813 181.595C107.757 180.599 118.979 167.625 127.888 162.44C131.513 160.357 134.298 164.011 131.692 166.853C120.642 173.448 110.63 186.261 96.7032 187.096C75.7887 188.348 53.4099 186.118 32.3402 187.085C29.6782 186.909 28.5839 184.118 30.3825 182.346C32.0816 180.673 38.7427 182.2 41.2735 181.409L132.229 114.188C136.563 110.35 138.083 105.158 136.984 99.7491C130.972 105.077 125.286 111.255 118.505 115.81C117.2 116.685 115.95 117.659 114.502 118.337C104.872 122.826 91.6776 120.548 89.7278 109.61L88.5539 109.808L6.91334 169.888C6.05384 170.789 6.16129 174.92 6.32841 176.297C7.31127 184.316 15.6755 180.197 19.8218 181.786C22.1416 182.676 21.9029 186.37 19.5512 187C18.4092 187.308 12.3728 187.209 10.9005 187.07C5.23812 186.543 0.928682 182.192 0.355682 177.04C1.25497 163.623 -0.78236 148.997 0.355682 135.723C0.646161 132.336 2.20996 128.967 4.35076 126.246C25.3568 110.207 46.4702 93.9597 68.101 78.5689C76.0912 72.882 93.321 60.2779 103.448 60.6331C107.411 60.7722 110.447 62.8778 110.793 66.6642C111.183 70.9193 109.13 74.193 106.818 77.6498C106.078 78.7556 102.692 82.6262 102.509 83.2085C102.035 84.7245 104.22 89.3567 103.635 91.3451C110.105 87.0131 116.265 82.2417 123.121 78.4041C128.923 75.1524 144.696 66.6861 148.974 75.3904C151.353 80.2314 148.218 85.4166 145.496 89.4886C144.764 90.5835 141.537 94.2014 141.417 94.9008C141.326 95.4464 143.196 100.178 143.339 101.767C143.526 103.828 143.14 105.766 142.949 107.787C148.898 105.22 160.812 98.4089 165.981 105.051C170.063 110.299 165.161 117.494 161.771 121.999C160.633 123.511 154.751 129.579 154.548 130.355C154.21 131.633 155.826 135.123 156.009 136.88C156.709 143.556 153.601 150.081 148.321 154.567C147.282 155.45 143.371 158.397 142.301 158.892C139.539 160.166 137.012 158.141 137.872 155.549C138.333 154.161 144.517 150.477 145.989 148.95C149.252 145.559 150.764 139.975 149.702 135.562C149.021 134.888 142.507 141.366 141.767 141.959C133.976 148.207 123.165 154.655 113.038 147.921C109.719 145.716 108.836 142.933 107.411 139.587L50.8195 181.599H97.0852L97.0813 181.595ZM104.371 66.1881C101.813 64.7197 91.1762 70.3846 88.5778 71.8311C78.1962 77.6022 69.251 85.2554 59.5617 91.9017C58.925 92.6011 59.3986 95.2194 59.6532 96.1898C61.229 102.17 68.7058 102.477 73.9424 100.383C80.9935 97.563 102.481 76.7563 104.447 69.9891C104.841 68.6269 105.127 67.5394 104.375 66.1881H104.371ZM140.474 77.192C136.025 77.6974 129.905 81.1322 126.066 83.3C114.98 89.5545 105.048 97.6545 94.9842 105.084C95.1116 112.566 99.3176 115.92 107.363 114.689C111.581 114.041 114.387 111.848 117.538 109.438C124.144 104.389 140.211 89.4886 143.025 82.4614C144.195 79.5393 144.835 76.694 140.474 77.192ZM6.33636 136.104V162.96C7.03271 163.121 7.13219 162.689 7.53011 162.415C36.6775 142.153 64.1139 119.644 93.1737 99.2547C96.0586 96.4607 98.0721 92.7549 97.0892 88.7891C87.8934 97.1895 76.2464 111.368 61.4399 105.872C58.2366 104.682 56.0242 102.649 54.5957 99.7454C54.2296 99.0021 54.0386 96.6109 53.012 96.8306L9.34461 129.37C7.92802 131.417 6.62286 133.636 6.34034 136.104H6.33636ZM158.341 107.882C153.804 108.398 147.099 112.108 143.14 114.356C132.579 120.354 123.403 128.136 113.531 134.984C112.982 135.65 113.483 138.287 113.742 139.228C115.791 146.716 125.497 145.98 131.326 142.582C138.811 138.217 157.027 120.852 160.501 113.521C161.802 110.771 162.984 107.355 158.341 107.882Z" fill="#DD477E"/>
<path d="M172.952 132.882C172.841 133.896 172.853 136.155 172.992 137.162C175.972 158.683 211.586 157.464 212.354 135.478C213.173 112.071 175.451 110.489 172.952 132.882ZM197.416 132.801C194.3 132.827 191.75 130.52 191.722 127.649C191.698 124.774 194.201 122.427 197.32 122.405C200.44 122.379 202.987 124.686 203.015 127.557C203.043 130.428 200.536 132.775 197.416 132.801Z" fill="#DD477E"/>
<path d="M251.182 52.0825C235.453 52.2034 222.815 64.0458 222.95 78.5285C223.082 93.0112 235.942 104.649 251.672 104.524C267.398 104.4 280.039 92.5608 279.904 78.0781C279.769 63.5954 266.908 51.958 251.182 52.0825ZM259.65 74.0024C254.891 74.0427 250.995 70.52 250.956 66.1368C250.916 61.7499 254.74 58.1686 259.503 58.1283C264.262 58.0917 268.154 61.6144 268.197 65.9976C268.237 70.3809 264.409 73.9658 259.65 74.0024Z" fill="#DD477E"/>
</svg>
