<svg width="709" height="135" viewBox="0 0 709 135" fill="none" xmlns="http://www.w3.org/2000/svg">
<g filter="url(#filter0_dd_227_49)">
<g clip-path="url(#clip0_227_49)">
<g clip-path="url(#clip1_227_49)">
<g clip-path="url(#clip2_227_49)">
<path d="M57.9758 71.5472C63.6858 74.609 67.4638 79.8952 67.4638 87.2217C67.4638 99.0919 59.4505 108.274 45.1728 108.274C37.4366 108.274 31.358 105.4 26.6597 102.433C24.2649 105.958 20.8583 108.274 15.8829 108.274C8.32961 108.274 4 102.896 4 96.6804C4 90.8388 8.05241 85.4577 15.0512 84.344C16.0658 79.0578 16.1572 73.7716 18.4606 69.2278C15.3284 67.2797 12.9336 63.9416 12.9336 59.3978C12.9336 48.8254 26.1968 41.9623 40.8432 41.9623C56.5927 41.9623 63.963 49.752 63.963 58.6554C63.963 64.1287 61.1995 68.3933 57.9758 71.5472ZM33.6586 76.091C33.0127 79.9873 32.4611 84.344 31.5409 88.7036C34.0272 90.0014 36.3306 91.023 38.5397 91.023C41.6719 91.023 43.6981 88.9828 43.6981 85.3656C43.6981 83.1412 42.9608 81.006 41.5805 79.524C37.8053 79.4319 34.7645 78.1341 33.6586 76.091ZM31.8153 60.7877C34.856 60.9719 37.3423 62.4568 38.4483 65.1474C37.068 65.7027 36.0534 67.2797 35.2247 69.4149C36.605 68.3933 38.9998 67.6538 42.7779 67.5588C43.8839 66.3531 44.6212 64.8682 44.6212 62.9229C44.6212 60.3273 42.595 58.2871 39.1856 58.2871C36.6078 58.2871 34.0272 59.1216 31.8181 60.7906L31.8153 60.7877Z" fill="#450A20"/>
<path d="M91.7783 102.709C88.4632 105.955 83.9479 108.274 78.698 108.274C71.3305 108.274 65.712 103.172 65.712 94.0848C65.712 87.9641 69.5816 80.8218 69.5816 75.9989C69.5816 73.1241 68.6613 70.9918 65.3434 70.9918C65.712 65.2423 70.4103 60.5115 77.4091 60.5115C84.408 60.5115 87.9088 65.4265 87.9088 71.176C87.9088 78.2233 82.8419 86.108 82.8419 91.21C82.8419 93.5294 83.8536 94.8272 85.514 94.8272C89.6578 94.8272 93.0672 85.5526 93.0672 78.6895C93.0672 75.0723 91.5011 72.6608 88.5547 71.8263C89.292 66.0768 94.3561 60.5115 100.898 60.5115C106.976 60.5115 111.766 64.1287 111.766 71.0839C111.766 77.2967 107.714 84.9023 107.714 90.7467C107.714 93.8085 108.911 96.3121 113.701 96.3121C112.872 102.991 108.174 107.906 100.438 107.906C96.2937 107.906 93.4387 105.679 91.7783 102.712V102.709Z" fill="#450A20"/>
<path d="M111.672 90.5597C111.672 81.006 117.842 65.7977 117.842 57.8209C117.842 54.9462 116.921 52.5347 113.698 52.0714C114.066 46.5061 119.039 41.9623 125.764 41.9623C131.291 41.9623 135.986 45.7636 135.986 52.0714C135.986 58.8425 132.116 64.592 129.999 69.507C133.131 64.6841 138.104 60.5115 144.182 60.5115C152.104 60.5115 156.894 66.7243 156.894 76.1859C156.894 95.5697 143.908 108.274 129.17 108.274C117.933 108.274 111.669 101.04 111.669 90.5597H111.672ZM139.398 79.2449C139.398 74.422 138.201 72.9371 136.635 72.9371C132.674 72.9371 127.884 82.4908 127.884 90.6518C127.884 95.938 130.187 96.3092 131.016 96.3092C136.083 96.3092 139.398 84.1599 139.398 79.2449Z" fill="#450A20"/>
<path d="M154.225 90.5597C154.225 81.006 160.395 65.7977 160.395 57.8209C160.395 54.9462 159.475 52.5347 156.251 52.0714C156.62 46.5061 161.592 41.9623 168.317 41.9623C173.844 41.9623 178.539 45.7636 178.539 52.0714C178.539 58.8425 174.67 64.592 172.552 69.507C175.684 64.6841 180.657 60.5115 186.735 60.5115C194.657 60.5115 199.447 66.7243 199.447 76.1859C199.447 95.5697 186.461 108.274 171.723 108.274C160.486 108.274 154.222 101.04 154.222 90.5597H154.225ZM181.951 79.2449C181.951 74.422 180.754 72.9371 179.188 72.9371C175.227 72.9371 170.437 82.4908 170.437 90.6518C170.437 95.938 172.741 96.3092 173.569 96.3092C178.636 96.3092 181.951 84.1599 181.951 79.2449Z" fill="#450A20"/>
<path d="M220.635 96.3092C219.989 102.338 213.819 107.903 206.357 107.903C198.895 107.903 195.949 101.875 195.949 96.3092C195.949 86.7555 203.777 68.0221 203.777 57.4497C203.777 54.1116 201.933 52.2556 199.633 52.0714C199.91 46.7852 204.883 41.9623 211.516 41.9623C217.226 41.9623 222.107 45.5795 222.107 53.2771C222.107 62.8309 214.645 83.1412 214.645 90.7467C214.645 95.6617 217.686 96.3121 220.632 96.3121L220.635 96.3092Z" fill="#450A20"/>
<path d="M254.163 85.4606C257.938 86.2951 259.964 89.0778 259.964 92.3237C259.964 99.5581 250.293 108.277 237.768 108.277C226.622 108.277 217.871 101.414 217.871 88.7094C217.871 73.8695 230.029 60.5144 245.781 60.5144C253.517 60.5144 261.07 64.3158 261.07 72.9429C261.07 76.468 259.504 81.8463 254.163 85.4635V85.4606ZM238.871 89.2619C237.582 89.2619 236.293 89.1699 234.91 89.0778C235.187 92.6029 236.567 94.8273 240.16 94.8273C244.121 94.8273 247.344 92.0446 248.91 87.872C246.147 88.7066 242.832 89.2619 238.871 89.2619ZM235.281 83.0491C240.717 82.77 244.675 80.6377 244.675 76.3702C244.675 74.2378 243.663 72.94 242.003 72.94C238.962 72.94 236.293 77.5759 235.278 83.0491H235.281Z" fill="#450A20"/>
</g>
<path d="M354.464 116.164C352.11 116.618 349.89 116.525 347.794 115.884C345.698 115.242 343.952 114.17 342.55 112.666C341.147 111.161 340.243 109.349 339.84 107.233C339.493 105.418 339.603 103.675 340.166 101.997C340.729 100.319 341.598 98.8207 342.772 97.4953C343.946 96.1729 345.25 95.1878 346.685 94.546C346.457 94.4326 346.297 94.346 346.208 94.2863C346.119 94.2266 345.989 94.1579 345.82 94.0863L341.654 91.8325C340.765 94.2505 339.458 96.4386 337.729 98.3908C336.001 100.343 333.961 101.979 331.619 103.292C329.274 104.609 326.677 105.54 323.825 106.092C319.722 106.887 316.025 106.815 312.732 105.884C309.441 104.952 306.711 103.283 304.541 100.883C302.371 98.4804 300.939 95.4654 300.248 91.8385C299.788 89.4206 299.806 87.0653 300.304 84.7757C300.802 82.4861 301.692 80.3547 302.978 78.3816C304.262 76.4084 305.857 74.692 307.757 73.2263C306.871 72.6651 306.07 71.9994 305.353 71.2232C304.636 70.4501 304.028 69.5725 303.53 68.5963C303.032 67.6232 302.685 66.6053 302.483 65.5455C302.071 63.3783 302.258 61.3067 303.049 59.3245C303.841 57.3424 305.071 55.6439 306.746 54.223C308.421 52.802 310.411 51.8707 312.711 51.4259C315.213 50.9423 317.481 51.002 319.515 51.599C321.548 52.199 323.259 53.2797 324.646 54.8409C326.034 56.4021 326.953 58.3663 327.404 60.7335C327.807 62.85 327.632 64.8709 326.885 66.7903C326.135 68.7127 324.904 70.3605 323.197 71.7337L335.512 78.3666L335.589 77.9607C336.028 75.6293 336.54 73.5576 337.13 71.7456C337.72 69.9337 338.461 68.3814 339.357 67.0829C340.252 65.7873 341.435 64.7097 342.905 63.85C344.376 62.9903 346.211 62.3485 348.414 61.9246L353.593 60.9246L355.134 69.0143L350.48 69.9128C349.178 70.1635 348.153 70.5725 347.406 71.1337C346.656 71.6979 346.074 72.4621 345.662 73.4292C345.25 74.3994 344.906 75.5875 344.631 76.9995C344.355 78.4114 344.044 80.1189 343.7 82.116L343.59 82.7637L344.097 82.9787C348.497 85.1071 352.134 87.1728 355.007 89.1788C357.879 91.1848 360.094 93.2117 361.653 95.2624C363.213 97.3132 364.212 99.4953 364.654 101.815C365.095 104.131 364.962 106.301 364.259 108.316C363.554 110.334 362.359 112.027 360.675 113.397C358.991 114.767 356.922 115.69 354.47 116.164H354.464ZM322.595 96.7729C324.246 96.4535 325.764 95.9132 327.149 95.149C328.533 94.3848 329.766 93.3639 330.845 92.0833C331.925 90.8057 332.805 89.2355 333.49 87.3787L315.172 77.4353C314.134 78.2622 313.191 79.2293 312.338 80.3338C311.484 81.4383 310.861 82.6712 310.473 84.0264C310.081 85.3817 310.052 86.916 310.378 88.6295C310.734 90.4952 311.496 92.1102 312.664 93.4773C313.832 94.8475 315.278 95.8326 317.004 96.4416C318.726 97.0505 320.591 97.158 322.592 96.7729H322.595ZM315.895 67.7366C316.559 67.1366 317.075 66.5157 317.446 65.8709C317.816 65.2261 318.059 64.6022 318.181 64.0052C318.299 63.4082 318.317 62.8828 318.231 62.4291C318.05 61.4738 317.594 60.7096 316.861 60.1454C316.132 59.5813 315.267 59.3962 314.265 59.5902C313.612 59.7156 313.07 59.9902 312.631 60.4141C312.192 60.838 311.884 61.3305 311.706 61.8858C311.525 62.444 311.499 63.05 311.623 63.7037C311.748 64.3605 312.008 64.9097 312.406 65.3545C312.803 65.7993 313.31 66.2112 313.927 66.5903C314.543 66.9694 315.198 67.3515 315.895 67.7396V67.7366ZM353.026 108.215C353.928 108.042 354.624 107.552 355.122 106.752C355.617 105.952 355.751 104.946 355.52 103.737C355.386 103.03 355.137 102.346 354.778 101.686C354.42 101.024 353.901 100.418 353.225 99.8715C352.262 100.266 351.434 100.752 350.741 101.331C350.047 101.91 349.549 102.567 349.25 103.304C348.947 104.042 348.879 104.839 349.042 105.695C349.223 106.654 349.709 107.355 350.495 107.806C351.28 108.254 352.125 108.394 353.023 108.218L353.026 108.215Z" fill="#8F1643"/>
<g clip-path="url(#clip3_227_49)">
<path d="M445.117 66.9985C447.002 69.6562 448.132 72.9759 448.132 76.8669C448.132 91.575 437.954 100.21 422.689 100.21C419.675 100.21 416.941 99.737 414.491 98.6925C414.304 99.1682 414.209 99.737 414.209 100.21C414.209 101.823 415.246 102.961 418.355 102.961C422.312 102.961 427.308 101.063 432.302 101.063C438.429 101.063 444.27 104.479 444.27 112.545C444.27 120.611 438.804 125.736 430.605 126.397C430.605 123.647 428.438 122.413 425.799 122.413C422.594 122.413 418.355 123.931 413.549 123.931C403.279 123.931 399.319 117.005 399.319 110.363C399.319 102.961 404.221 97.7437 408.742 94.9903C406.01 92.1438 404.408 88.3485 404.408 83.6975C404.408 70.9826 414.491 59.9767 430.04 59.9767C433.34 59.9767 436.449 60.6411 439.086 61.97C438.144 58.7434 435.599 57.037 431.925 57.037C430.7 57.037 429.381 57.2258 427.968 57.6058C427.403 56.0882 427.121 54.5706 427.121 53.1461C427.121 46.3155 432.965 41 439.561 41C446.722 41 451.811 45.7442 451.811 52.8617C451.811 58.459 449.361 63.4901 445.12 66.9985H445.117ZM431.36 77.3425C431.36 72.694 429.476 71.7452 428.156 71.7452C424.387 71.7452 421.842 78.8627 421.842 84.1756C421.842 87.5909 422.972 89.8686 425.329 89.8686C429.571 89.8686 431.36 81.8979 431.36 77.3425Z" fill="#DD477E"/>
<path d="M469.712 96.6036C469.052 102.772 462.739 108.465 455.105 108.465C447.472 108.465 444.458 102.297 444.458 96.6036C444.458 86.8309 452.468 67.663 452.468 56.8458C452.468 53.4305 450.584 51.5328 448.227 51.3415C448.509 45.9329 453.598 41 460.382 41C466.225 41 471.219 44.6997 471.219 52.5773C471.219 62.35 463.586 83.1312 463.586 90.9106C463.586 95.9392 466.695 96.6036 469.712 96.6036Z" fill="#DD477E"/>
<path d="M467.073 89.1088C467.073 74.2119 478.475 59.9794 494.307 59.9794C504.955 59.9794 512.776 66.148 512.776 79.2404C512.776 94.613 501.938 108.845 486.296 108.845C474.989 108.845 467.073 101.444 467.073 89.1088ZM496.192 79.2404C496.192 74.7806 494.967 72.6942 492.61 72.6942C487.898 72.6942 484.129 81.6138 484.129 88.6356C484.129 93.191 485.731 95.0887 487.898 95.0887C492.515 95.0887 496.192 86.9292 496.192 79.2429V79.2404Z" fill="#DD477E"/>
<path d="M536.711 93.7571C535.673 89.6773 535.204 85.2176 535.204 80.4734C535.204 68.1386 539.633 59.9792 548.018 59.9792C553.767 59.9792 557.254 65.0077 557.254 70.4163C557.254 76.1093 555.274 82.8468 552.26 88.9198C552.26 92.9039 553.202 95.5616 555.274 95.5616C559.798 95.5616 562.343 87.8753 562.343 81.8023C562.343 76.4893 560.646 73.1672 557.819 71.8383C558.856 65.954 563.663 59.9766 571.858 59.9766C577.607 59.9766 582.036 64.3408 582.036 72.2158C582.036 88.6304 569.314 108.463 551.223 108.463C546.511 108.463 543.024 106.281 540.48 102.578C536.333 106.278 531.339 108.463 525.308 108.463C515.508 108.463 512.021 101.63 512.021 94.3234C512.021 88.6304 515.13 80.8484 515.13 76.7687C515.13 72.689 513.246 70.6957 509.946 70.6957C510.889 63.9582 516.732 59.9741 523.046 59.9741C529.737 59.9741 534.544 64.6226 534.544 70.6957C534.544 76.7687 529.927 86.257 529.927 91.3812C529.927 93.6589 530.774 95.5566 533.131 95.5566C534.169 95.5566 535.486 94.8921 536.713 93.7546L536.711 93.7571Z" fill="#DD477E"/>
</g>
</g>
</g>
<path d="M610.385 63.6551C610.287 64.547 610.298 66.5334 610.42 67.4188C613.041 86.34 644.352 85.2679 645.028 65.9378C645.748 45.3585 612.582 43.9677 610.385 63.6551ZM631.894 63.5843C629.155 63.6068 626.912 61.5785 626.888 59.0544C626.867 56.5271 629.067 54.4634 631.81 54.444C634.553 54.4215 636.792 56.4498 636.817 58.9739C636.841 61.498 634.637 63.5618 631.894 63.5843Z" fill="#FFB6A9"/>
<path d="M679.142 0.000870201C665.313 0.107115 654.201 10.5191 654.32 23.2524C654.436 35.9856 665.743 46.2174 679.573 46.1079C693.399 45.9984 704.513 35.5896 704.395 22.8564C704.276 10.1231 692.968 -0.108594 679.142 0.000870201ZM686.587 19.273C682.403 19.3084 678.978 16.2112 678.943 12.3575C678.908 8.50045 682.27 5.35175 686.458 5.31633C690.642 5.28414 694.063 8.38133 694.102 12.2351C694.137 16.0889 690.771 19.2408 686.587 19.273Z" fill="#FFB6A9"/>
</g>
<defs>
<filter id="filter0_dd_227_49" x="0" y="0" width="708.396" height="134.397" filterUnits="userSpaceOnUse" color-interpolation-filters="sRGB">
<feFlood flood-opacity="0" result="BackgroundImageFix"/>
<feColorMatrix in="SourceAlpha" type="matrix" values="0 0 0 0 0 0 0 0 0 0 0 0 0 0 0 0 0 0 127 0" result="hardAlpha"/>
<feOffset dy="4"/>
<feGaussianBlur stdDeviation="2"/>
<feComposite in2="hardAlpha" operator="out"/>
<feColorMatrix type="matrix" values="0 0 0 0 0 0 0 0 0 0 0 0 0 0 0 0 0 0 0.25 0"/>
<feBlend mode="normal" in2="BackgroundImageFix" result="effect1_dropShadow_227_49"/>
<feColorMatrix in="SourceAlpha" type="matrix" values="0 0 0 0 0 0 0 0 0 0 0 0 0 0 0 0 0 0 127 0" result="hardAlpha"/>
<feOffset dy="4"/>
<feGaussianBlur stdDeviation="2"/>
<feComposite in2="hardAlpha" operator="out"/>
<feColorMatrix type="matrix" values="0 0 0 0 0 0 0 0 0 0 0 0 0 0 0 0 0 0 0.25 0"/>
<feBlend mode="normal" in2="effect1_dropShadow_227_49" result="effect2_dropShadow_227_49"/>
<feBlend mode="normal" in="SourceGraphic" in2="effect2_dropShadow_227_49" result="shape"/>
</filter>
<clipPath id="clip0_227_49">
<rect width="578.036" height="85.3974" fill="white" transform="translate(4 41)"/>
</clipPath>
<clipPath id="clip1_227_49">
<rect width="578.036" height="85.3974" fill="white" transform="translate(4 41)"/>
</clipPath>
<clipPath id="clip2_227_49">
<rect width="257.07" height="66.315" fill="white" transform="translate(4 41.9622)"/>
</clipPath>
<clipPath id="clip3_227_49">
<rect width="182.717" height="85.3974" fill="white" transform="translate(399.319 41)"/>
</clipPath>
</defs>
</svg>
