<svg width="449" height="147" viewBox="0 0 449 147" fill="none" xmlns="http://www.w3.org/2000/svg">
<g clip-path="url(#clip0_227_50)">
<path d="M361.268 43.3834C370.694 43.7938 377.856 51.5798 375.2 60.189C372.185 69.9636 358.448 72.8959 351.072 65.2128C344.231 58.0861 347.363 48.0774 356.367 44.2581L361.268 43.3834Z" fill="#FFB6A9"/>
<path d="M419.078 73.4614C417.543 66.427 410.082 61.8349 402.412 63.2047C394.742 64.5744 389.769 71.3873 391.303 78.4217C392.838 85.456 400.3 90.0481 407.97 88.6783C415.64 87.3086 420.613 80.4957 419.078 73.4614Z" fill="#FFB6A9"/>
<path d="M422.394 27.7867C424.393 36.9494 417.913 45.8247 407.923 47.6091C397.929 49.3922 388.209 43.4141 386.207 34.25C384.208 25.0873 390.688 16.212 400.678 14.4276C410.672 12.6445 420.392 18.6226 422.394 27.7867ZM412.805 20.46C412.229 17.8226 409.431 16.1004 406.553 16.6147C403.675 17.129 401.811 19.684 402.385 22.3244C402.961 24.9618 405.76 26.684 408.637 26.1697C411.515 25.6555 413.379 23.1004 412.805 20.46Z" fill="#FFB6A9"/>
<path d="M412.827 20.4607C412.251 17.8219 409.452 16.0993 406.575 16.6131C403.698 17.1269 401.832 19.6826 402.408 22.3214C402.984 24.9602 405.783 26.6828 408.66 26.169C411.537 25.6552 413.402 23.0995 412.827 20.4607Z" fill="#FEFEFE"/>
</g>
<path d="M47.296 98.496C45.7173 104.469 43.0293 109.312 39.232 113.024C35.4347 116.693 30.9547 119.061 25.792 120.128C27.456 121.408 29.312 122.048 31.36 122.048C32.4267 122.048 33.3653 121.835 34.176 121.408C35.0293 121.024 35.8613 120.512 36.672 119.872C36.7573 119.787 36.992 119.616 37.376 119.36C37.76 119.061 38.1013 118.912 38.4 118.912C38.784 118.912 39.1253 119.339 39.424 120.192C39.7653 121.088 39.936 122.176 39.936 123.456C39.936 124.736 39.7653 125.952 39.424 127.104C38.784 129.323 37.632 131.051 35.968 132.288C34.3467 133.525 32.2987 134.144 29.824 134.144C24.5333 134.144 20.8213 130.923 18.688 124.48L17.408 120.704C12.7573 120.363 9.10933 118.933 6.464 116.416C3.86133 113.856 2.56 110.357 2.56 105.92C2.56 103.744 2.92267 101.269 3.648 98.496C4.88533 93.76 6.82667 89.7493 9.472 86.464C12.16 83.136 15.3387 80.64 19.008 78.976C22.72 77.2693 26.7733 76.416 31.168 76.416C36.544 76.416 40.7467 77.696 43.776 80.256C46.8053 82.7733 48.32 86.4213 48.32 91.2C48.32 93.4613 47.9787 95.8933 47.296 98.496ZM30.4 98.944C32.064 93.056 32.896 88.9173 32.896 86.528C32.896 85.1627 32.6613 84.1813 32.192 83.584C31.7227 82.9867 30.9973 82.688 30.016 82.688C28.736 82.688 27.584 83.2 26.56 84.224C25.536 85.248 24.512 86.9333 23.488 89.28C22.5067 91.584 21.44 94.8053 20.288 98.944C18.5813 104.917 17.728 109.035 17.728 111.296C17.728 112.619 17.9627 113.579 18.432 114.176C18.9013 114.773 19.648 115.072 20.672 115.072C21.952 115.072 23.104 114.56 24.128 113.536C25.152 112.469 26.1547 110.784 27.136 108.48C28.1173 106.176 29.2053 102.997 30.4 98.944ZM86.2035 111.168C86.1182 111.509 86.0755 111.765 86.0755 111.936C86.0755 112.235 86.1395 112.469 86.2675 112.64C86.4382 112.811 86.6515 112.896 86.9075 112.896C87.4195 112.896 87.8462 112.683 88.1875 112.256C88.5715 111.787 88.8275 111.552 88.9555 111.552C89.1688 111.552 89.3395 111.701 89.4675 112C89.6382 112.256 89.7235 112.576 89.7235 112.96C89.7662 114.155 89.3395 115.349 88.4435 116.544C87.5475 117.696 86.2888 118.656 84.6675 119.424C83.0462 120.192 81.2328 120.576 79.2275 120.576C76.7102 120.576 74.7048 120.064 73.2115 119.04C71.7182 118.016 70.7582 116.672 70.3315 115.008C68.7955 116.715 67.0888 118.016 65.2115 118.912C63.3768 119.765 61.4995 120.192 59.5795 120.192C56.5928 120.192 54.0755 119.467 52.0275 118.016C50.0222 116.523 49.0195 114.453 49.0195 111.808C49.0195 110.613 49.2328 109.376 49.6595 108.096L53.7555 94.72C53.8835 94.336 53.9475 94.016 53.9475 93.76C53.9475 93.2907 53.8408 92.928 53.6275 92.672C53.4142 92.3733 53.0942 92.0747 52.6675 91.776C52.2408 91.4347 51.9422 91.136 51.7715 90.88C51.6008 90.624 51.5795 90.2827 51.7075 89.856C51.9635 88.8747 53.3075 88.0213 55.7395 87.296C58.1715 86.528 60.7102 86.144 63.3555 86.144C65.8302 86.144 67.6435 86.6133 68.7955 87.552C69.9475 88.4907 70.5235 89.7707 70.5235 91.392C70.5235 92.3733 70.3742 93.312 70.0755 94.208L66.0435 107.52C65.8728 107.989 65.7875 108.437 65.7875 108.864C65.7875 109.461 65.9582 109.909 66.2995 110.208C66.6408 110.507 67.0888 110.656 67.6435 110.656C68.4542 110.656 69.1155 110.421 69.6275 109.952C70.1395 109.483 70.6515 108.693 71.1635 107.584L75.0675 94.72C75.1955 94.336 75.2595 94.016 75.2595 93.76C75.2595 93.2907 75.1528 92.928 74.9395 92.672C74.7262 92.3733 74.4275 92.0747 74.0435 91.776C73.6168 91.4347 73.3182 91.136 73.1475 90.88C72.9768 90.624 72.9555 90.2827 73.0835 89.856C73.2968 88.8747 74.6195 88.0213 77.0515 87.296C79.4835 86.528 82.0222 86.144 84.6675 86.144C87.1422 86.144 88.9555 86.6133 90.1075 87.552C91.3022 88.4907 91.8995 89.7493 91.8995 91.328C91.8995 92.1387 91.7288 93.0987 91.3875 94.208L86.2035 111.168ZM108.895 86.144C111.369 86.144 113.183 86.6133 114.335 87.552C115.487 88.4907 116.063 89.7707 116.063 91.392C116.063 92.3733 115.913 93.312 115.615 94.208L109.727 113.344C109.599 113.856 109.535 114.304 109.535 114.688C109.535 115.243 109.641 115.691 109.855 116.032C110.068 116.331 110.367 116.629 110.751 116.928C111.049 117.227 111.263 117.483 111.391 117.696C111.519 117.867 111.54 118.101 111.455 118.4C111.241 118.955 110.815 119.36 110.175 119.616C109.535 119.872 108.553 120 107.231 120H92.6385C91.5292 120 90.7185 119.829 90.2065 119.488C89.6945 119.104 89.5238 118.613 89.6945 118.016C89.8652 117.504 90.3132 117.056 91.0385 116.672C91.6785 116.331 92.2118 115.925 92.6385 115.456C93.0652 114.987 93.4278 114.24 93.7265 113.216L99.2945 94.72C99.4225 94.336 99.4865 94.016 99.4865 93.76C99.4865 93.2907 99.3798 92.928 99.1665 92.672C98.9532 92.3733 98.6332 92.0747 98.2065 91.776C97.7798 91.4347 97.4812 91.136 97.3105 90.88C97.1398 90.624 97.1185 90.2827 97.2465 89.856C97.5025 88.8747 98.8465 88.0213 101.279 87.296C103.711 86.528 106.249 86.144 108.895 86.144ZM113.183 72C114.847 72 116.233 72.5547 117.343 73.664C118.452 74.7307 119.007 76.0533 119.007 77.632C119.007 78.7413 118.708 79.8293 118.111 80.896C117.556 81.9627 116.745 82.8373 115.679 83.52C114.655 84.16 113.503 84.48 112.223 84.48C110.601 84.48 109.236 83.9467 108.127 82.88C107.06 81.7707 106.505 80.4053 106.463 78.784C106.463 77.7173 106.74 76.672 107.295 75.648C107.849 74.5813 108.639 73.7067 109.663 73.024C110.687 72.3413 111.86 72 113.183 72ZM149.433 71.808C151.139 71.808 152.569 72.384 153.721 73.536C154.873 74.6453 155.449 76.0107 155.449 77.632C155.491 78.8267 155.193 80 154.553 81.152C153.955 82.2613 153.102 83.1787 151.993 83.904C150.926 84.5867 149.689 84.928 148.281 84.928C146.574 84.928 145.145 84.352 143.993 83.2C142.883 82.0053 142.329 80.5547 142.329 78.848C142.329 77.7387 142.627 76.6507 143.225 75.584C143.822 74.4747 144.654 73.5787 145.721 72.896C146.83 72.1707 148.067 71.808 149.433 71.808ZM134.137 94.72C134.222 94.5067 134.265 94.208 134.265 93.824C134.265 93.3547 134.158 92.992 133.945 92.736C133.774 92.48 133.475 92.16 133.049 91.776C132.622 91.4347 132.323 91.136 132.153 90.88C131.982 90.624 131.961 90.2827 132.089 89.856C132.345 88.8747 133.689 88.0213 136.121 87.296C138.553 86.528 141.091 86.144 143.737 86.144C146.211 86.144 148.025 86.6133 149.177 87.552C150.329 88.4907 150.905 89.7707 150.905 91.392C150.905 92.3733 150.755 93.312 150.457 94.208L142.585 120.704C141.305 124.928 139.299 127.893 136.569 129.6C133.838 131.307 130.169 132.16 125.56 132.16C123.726 132.16 122.147 131.925 120.824 131.456C119.459 130.987 118.904 130.347 119.16 129.536C119.246 129.237 119.438 128.96 119.736 128.704C120.035 128.448 120.483 128.171 121.08 127.872C122.19 127.275 123.128 126.613 123.896 125.888C124.622 125.205 125.198 124.181 125.624 122.816L134.137 94.72ZM171.446 85.824C176.865 85.824 180.79 86.6987 183.222 88.448C185.654 90.1547 186.87 92.352 186.87 95.04C186.87 95.8507 186.785 96.5973 186.614 97.28C185.974 100.096 184.182 102.123 181.238 103.36C178.337 104.555 174.902 105.152 170.934 105.152C168.929 105.152 167.051 105.024 165.302 104.768C165.259 106.987 165.857 108.544 167.094 109.44C168.331 110.336 170.059 110.784 172.278 110.784C173.302 110.784 174.283 110.677 175.222 110.464C176.161 110.208 177.355 109.845 178.806 109.376C180.001 108.949 180.811 108.736 181.238 108.736C181.707 108.736 181.942 109.013 181.942 109.568C181.985 111.061 181.43 112.64 180.278 114.304C179.126 115.925 177.419 117.312 175.158 118.464C172.897 119.616 170.166 120.192 166.966 120.192C162.23 120.192 158.347 118.997 155.318 116.608C152.289 114.219 150.774 110.741 150.774 106.176C150.774 104.896 150.945 103.403 151.286 101.696C152.353 96.448 154.678 92.5013 158.262 89.856C161.889 87.168 166.283 85.824 171.446 85.824ZM165.75 100.928C165.921 100.971 166.155 100.992 166.454 100.992C168.246 100.992 169.611 100.16 170.55 98.496C171.489 96.832 171.937 94.976 171.894 92.928C171.851 91.7333 171.51 91.136 170.87 91.136C170.401 91.136 169.846 91.52 169.206 92.288C168.566 93.0133 167.926 94.1227 167.286 95.616C166.689 97.1093 166.177 98.88 165.75 100.928ZM219.431 85.568C222.972 85.568 226.023 85.888 228.583 86.528C231.186 87.168 233.17 88.064 234.535 89.216C235.943 90.368 236.647 91.6693 236.647 93.12C236.647 94.6133 236.05 95.8293 234.855 96.768C233.703 97.7067 232.082 98.176 229.991 98.176C227.858 98.176 226.044 97.6427 224.551 96.576C223.1 95.5093 222.375 94.1653 222.375 92.544C222.375 91.9893 222.46 91.456 222.631 90.944C221.863 90.7307 221.18 90.624 220.583 90.624C219.516 90.624 218.62 90.88 217.895 91.392C217.212 91.904 216.892 92.6293 216.935 93.568C216.935 94.6773 217.49 95.616 218.599 96.384C219.708 97.152 221.5 98.112 223.975 99.264C226.108 100.203 227.858 101.077 229.223 101.888C230.631 102.656 231.804 103.637 232.743 104.832C233.724 106.027 234.215 107.435 234.215 109.056C234.215 109.397 234.13 110.037 233.959 110.976C233.276 113.835 231.378 116.096 228.263 117.76C225.148 119.424 221.052 120.256 215.975 120.256C210.258 120.256 205.714 119.488 202.343 117.952C199.015 116.416 197.351 114.304 197.351 111.616C197.351 109.781 197.906 108.395 199.015 107.456C200.124 106.517 201.596 106.048 203.431 106.048C205.564 106.048 207.378 106.709 208.871 108.032C210.407 109.355 211.175 111.04 211.175 113.088C211.175 113.643 211.111 114.219 210.983 114.816C212.007 115.072 212.988 115.2 213.927 115.2C215.036 115.2 215.954 114.901 216.679 114.304C217.404 113.707 217.767 112.875 217.767 111.808C217.724 110.827 217.234 109.995 216.295 109.312C215.356 108.587 213.863 107.733 211.815 106.752C209.895 105.856 208.316 105.024 207.079 104.256C205.842 103.445 204.775 102.443 203.879 101.248C203.026 100.053 202.599 98.6453 202.599 97.024C202.599 93.5253 204.05 90.752 206.951 88.704C209.895 86.6133 214.055 85.568 219.431 85.568ZM274.329 111.168C274.243 111.509 274.201 111.765 274.201 111.936C274.201 112.235 274.265 112.469 274.393 112.64C274.563 112.811 274.777 112.896 275.033 112.896C275.545 112.896 275.971 112.683 276.312 112.256C276.697 111.787 276.953 111.552 277.081 111.552C277.294 111.552 277.465 111.701 277.593 112C277.763 112.256 277.849 112.576 277.849 112.96C277.891 114.155 277.465 115.349 276.569 116.544C275.673 117.696 274.414 118.656 272.793 119.424C271.171 120.192 269.358 120.576 267.353 120.576C264.835 120.576 262.83 120.064 261.337 119.04C259.843 118.016 258.883 116.672 258.457 115.008C256.921 116.715 255.214 118.016 253.337 118.912C251.502 119.765 249.625 120.192 247.705 120.192C244.718 120.192 242.201 119.467 240.153 118.016C238.147 116.523 237.145 114.453 237.145 111.808C237.145 110.613 237.358 109.376 237.785 108.096L241.881 94.72C242.009 94.336 242.073 94.016 242.073 93.76C242.073 93.2907 241.966 92.928 241.753 92.672C241.539 92.3733 241.219 92.0747 240.793 91.776C240.366 91.4347 240.067 91.136 239.897 90.88C239.726 90.624 239.705 90.2827 239.833 89.856C240.089 88.8747 241.433 88.0213 243.865 87.296C246.297 86.528 248.835 86.144 251.481 86.144C253.955 86.144 255.769 86.6133 256.921 87.552C258.073 88.4907 258.649 89.7707 258.649 91.392C258.649 92.3733 258.499 93.312 258.201 94.208L254.169 107.52C253.998 107.989 253.913 108.437 253.913 108.864C253.913 109.461 254.083 109.909 254.425 110.208C254.766 110.507 255.214 110.656 255.769 110.656C256.579 110.656 257.241 110.421 257.753 109.952C258.265 109.483 258.777 108.693 259.289 107.584L263.193 94.72C263.321 94.336 263.385 94.016 263.385 93.76C263.385 93.2907 263.278 92.928 263.065 92.672C262.851 92.3733 262.553 92.0747 262.169 91.776C261.742 91.4347 261.443 91.136 261.273 90.88C261.102 90.624 261.081 90.2827 261.209 89.856C261.422 88.8747 262.745 88.0213 265.177 87.296C267.609 86.528 270.147 86.144 272.793 86.144C275.267 86.144 277.081 86.6133 278.233 87.552C279.427 88.4907 280.025 89.7493 280.025 91.328C280.025 92.1387 279.854 93.0987 279.513 94.208L274.329 111.168ZM297.02 86.144C299.494 86.144 301.308 86.6133 302.46 87.552C303.612 88.4907 304.188 89.7707 304.188 91.392C304.188 92.3733 304.038 93.312 303.74 94.208L297.852 113.344C297.724 113.856 297.66 114.304 297.66 114.688C297.66 115.243 297.766 115.691 297.98 116.032C298.193 116.331 298.492 116.629 298.876 116.928C299.174 117.227 299.388 117.483 299.516 117.696C299.644 117.867 299.665 118.101 299.58 118.4C299.366 118.955 298.94 119.36 298.3 119.616C297.66 119.872 296.678 120 295.356 120H280.764C279.654 120 278.843 119.829 278.331 119.488C277.819 119.104 277.649 118.613 277.819 118.016C277.99 117.504 278.438 117.056 279.163 116.672C279.803 116.331 280.337 115.925 280.764 115.456C281.19 114.987 281.553 114.24 281.852 113.216L287.42 94.72C287.548 94.336 287.612 94.016 287.612 93.76C287.612 93.2907 287.505 92.928 287.292 92.672C287.078 92.3733 286.758 92.0747 286.332 91.776C285.905 91.4347 285.606 91.136 285.436 90.88C285.265 90.624 285.244 90.2827 285.372 89.856C285.628 88.8747 286.972 88.0213 289.404 87.296C291.836 86.528 294.374 86.144 297.02 86.144ZM301.308 72C302.972 72 304.358 72.5547 305.468 73.664C306.577 74.7307 307.132 76.0533 307.132 77.632C307.132 78.7413 306.833 79.8293 306.236 80.896C305.681 81.9627 304.87 82.8373 303.804 83.52C302.78 84.16 301.628 84.48 300.348 84.48C298.726 84.48 297.361 83.9467 296.252 82.88C295.185 81.7707 294.63 80.4053 294.588 78.784C294.588 77.7173 294.865 76.672 295.42 75.648C295.974 74.5813 296.764 73.7067 297.788 73.024C298.812 72.3413 299.985 72 301.308 72ZM324.681 85.568C328.222 85.568 331.273 85.888 333.833 86.528C336.436 87.168 338.42 88.064 339.785 89.216C341.193 90.368 341.897 91.6693 341.897 93.12C341.897 94.6133 341.3 95.8293 340.105 96.768C338.953 97.7067 337.332 98.176 335.241 98.176C333.108 98.176 331.294 97.6427 329.801 96.576C328.35 95.5093 327.625 94.1653 327.625 92.544C327.625 91.9893 327.71 91.456 327.881 90.944C327.113 90.7307 326.43 90.624 325.833 90.624C324.766 90.624 323.87 90.88 323.145 91.392C322.462 91.904 322.142 92.6293 322.185 93.568C322.185 94.6773 322.74 95.616 323.849 96.384C324.958 97.152 326.75 98.112 329.225 99.264C331.358 100.203 333.108 101.077 334.473 101.888C335.881 102.656 337.054 103.637 337.993 104.832C338.974 106.027 339.465 107.435 339.465 109.056C339.465 109.397 339.38 110.037 339.209 110.976C338.526 113.835 336.628 116.096 333.513 117.76C330.398 119.424 326.302 120.256 321.225 120.256C315.508 120.256 310.964 119.488 307.593 117.952C304.265 116.416 302.601 114.304 302.601 111.616C302.601 109.781 303.156 108.395 304.265 107.456C305.374 106.517 306.846 106.048 308.681 106.048C310.814 106.048 312.628 106.709 314.121 108.032C315.657 109.355 316.425 111.04 316.425 113.088C316.425 113.643 316.361 114.219 316.233 114.816C317.257 115.072 318.238 115.2 319.177 115.2C320.286 115.2 321.204 114.901 321.929 114.304C322.654 113.707 323.017 112.875 323.017 111.808C322.974 110.827 322.484 109.995 321.545 109.312C320.606 108.587 319.113 107.733 317.065 106.752C315.145 105.856 313.566 105.024 312.329 104.256C311.092 103.445 310.025 102.443 309.129 101.248C308.276 100.053 307.849 98.6453 307.849 97.024C307.849 93.5253 309.3 90.752 312.201 88.704C315.145 86.6133 319.305 85.568 324.681 85.568Z" fill="#A81B4F"/>
<defs>
<clipPath id="clip0_227_50">
<rect width="76.8469" height="81.2909" fill="white" transform="matrix(0.42961 -0.903014 0.927696 0.373337 340 69.3938)"/>
</clipPath>
</defs>
</svg>
