<svg width="55" height="55" viewBox="0 0 55 55" fill="none" xmlns="http://www.w3.org/2000/svg">
<path d="M27.5 0C34.9684 0 35.9058 0.0311972 38.8389 0.164114C41.7652 0.297031 43.7656 0.763706 45.514 1.44424C47.3223 2.14778 48.8553 3.08761 50.384 4.61615C51.9124 6.14469 52.8522 7.67782 53.5556 9.48594C54.2364 11.2344 54.703 13.2348 54.8359 16.161C54.9688 19.0942 55 20.0316 55 27.5C55 34.9684 54.9688 35.9058 54.8359 38.8389C54.7006 41.7652 54.2364 43.7656 53.5556 45.514C52.8522 47.3223 51.9124 48.8553 50.384 50.384C48.8553 51.9124 47.3223 52.8522 45.514 53.5556C43.7656 54.2364 41.7652 54.703 38.8389 54.8359C35.9058 54.9688 34.9684 55 27.5 55C20.0316 55 19.0942 54.9688 16.161 54.8359C13.2348 54.7006 11.2344 54.2364 9.48594 53.5556C7.67782 52.8522 6.14469 51.9124 4.61615 50.384C3.08761 48.8553 2.14778 47.3223 1.44424 45.514C0.763706 43.7656 0.297031 41.7652 0.164114 38.8389C0.0311972 35.9058 0 34.9684 0 27.5C0 20.0316 0.0311972 19.0942 0.164114 16.161C0.297031 13.2348 0.763706 11.2344 1.44424 9.48594C2.14778 7.67782 3.08761 6.14469 4.61615 4.61615C6.14469 3.08761 7.67782 2.14778 9.48594 1.44424C11.2344 0.763706 13.2348 0.297031 16.161 0.164114C19.0942 0.0311972 20.0316 0 27.5 0ZM27.5 4.95333C20.1576 4.95333 19.2867 4.98156 16.3878 5.11448C13.7072 5.23591 12.2516 5.68462 11.2823 6.06039C9.99894 6.55997 9.08181 7.15681 8.11931 8.11931C7.15681 9.08181 6.55997 9.99894 6.06039 11.2823C5.68462 12.2516 5.23591 13.7072 5.11448 16.3878C4.98156 19.2867 4.95333 20.1576 4.95333 27.5C4.95333 34.8425 4.98156 35.7133 5.11448 38.6121C5.23591 41.2928 5.68462 42.7484 6.06039 43.7177C6.55997 45.001 7.15681 45.9183 8.11931 46.8808C9.08181 47.8433 9.99894 48.44 11.2823 48.9396C12.2516 49.3154 13.7072 49.764 16.3878 49.8856C19.2867 50.0185 20.1576 50.0466 27.5 50.0466C34.8425 50.0466 35.7133 50.0185 38.6121 49.8856C41.2928 49.764 42.7484 49.3154 43.7177 48.9396C45.001 48.44 45.9183 47.8433 46.8808 46.8808C47.8433 45.9183 48.44 45.001 48.9396 43.7177C49.3154 42.7484 49.764 41.2928 49.8856 38.6121C50.0185 35.7133 50.0466 34.8425 50.0466 27.5C50.0466 20.1576 50.0185 19.2867 49.8856 16.3878C49.764 13.7072 49.3154 12.2516 48.9396 11.2823C48.44 9.99894 47.8433 9.08181 46.8808 8.11931C45.9183 7.15681 45.001 6.55997 43.7177 6.06039C42.7484 5.68462 41.2928 5.23591 38.6121 5.11448C35.7133 4.98156 34.8425 4.95333 27.5 4.95333ZM27.5 13.38C35.2984 13.38 41.62 19.7015 41.62 27.5C41.62 35.2984 35.2984 41.62 27.5 41.62C19.7015 41.62 13.38 35.2984 13.38 27.5C13.38 19.7015 19.7015 13.38 27.5 13.38ZM27.5 18.3333C22.4376 18.3333 18.3333 22.4376 18.3333 27.5C18.3333 32.5621 22.4376 36.6667 27.5 36.6667C32.5621 36.6667 36.6667 32.5621 36.6667 27.5C36.6667 22.4376 32.5621 18.3333 27.5 18.3333ZM42.181 9.51876C44.0024 9.51909 45.481 10.9976 45.4813 12.819C45.4813 14.6407 44.0028 16.1189 42.181 16.1192C40.359 16.1192 38.8807 14.6409 38.8807 12.819C38.881 10.9974 40.3593 9.51876 42.181 9.51876Z" fill="#450A20"/>
</svg>
