<svg width="163" height="144" viewBox="0 0 163 144" fill="none" xmlns="http://www.w3.org/2000/svg">
<path d="M40.9018 58.0097C55.1277 63.4798 61.163 78.682 51.5831 90.0355C40.7073 102.926 17.7228 100.173 11.2916 85.0121C5.32753 70.9494 16.5332 57.7731 32.8104 56.7738L40.9018 58.0097Z" fill="#FFB6A9"/>
<path d="M92.2569 118.115C93.6143 110.983 88.1815 104.203 80.1222 102.971C72.063 101.739 64.4292 106.521 63.0717 113.653C61.7142 120.785 67.1471 127.565 75.2064 128.797C83.2656 130.029 90.8994 125.247 92.2569 118.115Z" fill="#FFB6A9"/>
<path d="M144.792 66.577C142.012 81.1502 126.385 90.9241 109.891 88.4071C93.3932 85.8865 82.27 72.0358 85.0452 57.4589C87.8248 42.8858 103.452 33.1119 119.946 35.6289C136.444 38.1495 147.567 52.0002 144.792 66.577ZM134.732 50.801C135.531 46.606 132.33 42.617 127.578 41.8922C122.826 41.1675 118.33 43.982 117.527 48.1808C116.728 52.3758 119.929 56.3649 124.68 57.0896C129.432 57.8143 133.928 54.9998 134.732 50.801Z" fill="#FFB6A9"/>
<path d="M134.739 50.8274C135.539 46.6282 132.34 42.636 127.594 41.9106C122.848 41.1851 118.353 44.0011 117.554 48.2003C116.755 52.3995 119.954 56.3917 124.7 57.1172C129.445 57.8426 133.94 55.0266 134.739 50.8274Z" fill="#FEFEFE"/>
</svg>
