<svg width="279" height="284" viewBox="0 0 279 284" fill="none" xmlns="http://www.w3.org/2000/svg">
<path d="M139.5 5C213.699 5 274 66.2529 274 142C274 217.747 213.699 279 139.5 279C65.3011 279 5 217.747 5 142C5 66.2529 65.3011 5 139.5 5Z" stroke="#DD477E" stroke-width="10"/>
<path d="M137.476 130.685C138.036 130.047 137.016 116.759 137.999 113.747C138.968 110.779 142.131 108.762 145.23 109.021C149.938 109.416 153.675 116.934 160.635 117.531C169.897 118.329 180.006 114.582 186.358 123.582C187.954 125.844 188.129 129.159 188.97 130.406C189.255 130.825 190.084 130.951 190.534 131.36C194.582 135.035 192.846 138.331 191.404 142.925C189.102 150.265 185.226 155.994 177.4 158.177C171.992 159.688 154.436 159.603 148.999 158.102C141.821 156.116 137.877 150.956 135.55 144.182C134.007 139.698 131.643 134.472 136.216 131.151C136.597 130.872 137.407 130.76 137.473 130.688L137.476 130.685ZM183.772 130.1C181.792 118.388 167.207 123.289 158.843 122.153C155.293 121.672 151.508 119.001 148.702 116.877C147.285 115.805 145.452 112.915 143.407 114.119C143.125 114.285 142.556 114.917 142.556 115.157V130.1H183.769H183.772ZM139.641 134.888C138.214 135.194 138.349 136.208 138.546 137.418C139.647 144.198 143.253 151.71 150.429 153.533C154.432 154.55 169.64 154.456 174.175 154.005C180.969 153.333 184.782 147.929 186.69 141.981C187.338 139.967 189.762 134.441 186.149 134.803L139.644 134.888H139.641Z" fill="#DD477E"/>
<path d="M126.407 101.582C127.843 103.005 131.246 108.812 131.518 110.782C132.738 119.589 120.892 123.623 116.385 116.48C114.011 112.718 115.134 109.631 117.136 106.101C118.941 102.92 122.394 97.5974 126.407 101.585V101.582ZM122.775 105.919C122.572 106.038 120.548 109.547 120.38 109.969C117.73 116.593 127.195 116.956 126.817 111.736C126.742 110.71 124.49 106.495 123.689 106.029C123.426 105.875 123.035 105.766 122.775 105.919Z" fill="#DD477E"/>
<path d="M118.647 61.5264C120.158 62.4427 120.94 64.2878 119.441 65.6232C118.112 66.8085 114.387 66.0454 112.513 66.2456C109.035 66.6177 107.164 70.0109 109.257 72.9631C111.196 75.6996 115.888 72.9756 118.788 77.2758C121.149 80.7784 118.234 89.2192 122.022 90.0823C127.618 91.3583 126.025 85.4006 127.136 82.1169C128.356 78.5111 132.813 74.4236 136.745 74.4236H148.227V66.2456H127.933C127.846 66.2456 126.748 65.1353 126.682 64.9821C126 63.3903 126.826 62.6241 127.777 61.5264H176.856C187.851 64.5036 186.606 78.5861 174.823 79.468C162.252 80.4094 148.621 78.6237 135.938 79.5963C128.256 81.9793 134.055 90.3732 127.164 94.101C123.476 96.0962 119.519 95.2206 116.92 92.0432C113.946 88.4092 115.244 84.0715 114.743 79.7495C110.955 79.049 108.012 79.1084 105.45 75.8309C101.278 70.4925 104.399 63.4841 110.477 61.5264H118.656H118.647ZM176.065 66.2456H153.257V74.4236H176.694C176.8 74.4236 178.233 73.4604 178.43 73.2383C180.585 70.8115 179.315 66.7835 176.065 66.2456Z" fill="#DD477E"/>
<path d="M105.857 189.758C110.151 194.708 126.648 198.03 133.282 200.553C144.098 204.669 152.718 213.385 163.638 216.443C167.397 217.497 172.446 219.271 175.039 215.261C175.567 214.445 176.506 212.447 176.074 211.568C175.205 209.804 163.459 207.881 160.951 205.285L144.361 181.586C143.826 180.51 144.727 178.746 145.871 178.537C147.967 178.152 148.352 179.306 149.418 180.635C154.77 187.321 159.181 195.256 164.557 201.989C171.704 205.326 186.602 205.923 179.121 217.766C175.189 223.993 168.774 222.798 162.687 221.163C151.495 218.154 143.776 210.107 133.423 205.754C124.289 201.914 104.237 199.306 100.245 189.542C96.7703 181.035 103.026 174.968 110.154 171.766C100.471 158.622 85.7008 150.881 72.617 141.674C68.3819 138.694 63.3742 135.26 59.971 131.357C59.2923 130.579 56.668 126.619 56.3552 126.466C55.9205 126.25 55.5264 126.288 55.0885 126.454L40.4376 131.345C38.3794 131.342 37.2597 128.796 38.5515 127.239C39.8276 125.7 51.6979 123.126 54.1595 121.766C55.151 120.937 52.8114 113.109 56.8776 112.89C60.3777 112.699 58.9952 117.534 59.1922 119.558C59.8178 125.966 67.1557 131.798 71.9883 135.389C81.7097 142.613 92.5352 148.351 101.809 156.214C105.122 159.022 112.982 166.306 114.884 169.88C117.918 175.591 109.363 176.832 106.404 179.663C103.645 182.302 103.345 186.855 105.86 189.755L105.857 189.758Z" fill="#DD477E"/>
<path d="M64.156 72.9444C69.7267 72.6723 74.3622 74.9272 77.881 79.1679L142.265 170.496C143.719 173.605 140.175 175.619 138.161 173.029L121.171 149.118C116.372 152.145 112.209 153.899 106.529 151.813C103.345 150.644 101.656 148.683 99.6478 146.112C93.464 138.191 86.4545 127.973 80.9526 119.508C77.3993 114.041 76.217 111.064 82.0536 106.57C82.9763 105.86 88.1998 102.701 88.0904 102.01L72.7232 80.5533C69.7017 78.0107 66.6395 77.6636 62.8079 77.8888C55.5293 78.3172 47.7816 80.0967 40.4593 80.7253C37.8726 80.7222 36.978 76.9005 39.5334 76.0092C47.5877 75.34 56.1424 73.3385 64.156 72.9475V72.9444ZM91.2714 106.195C90.9961 106.004 89.3634 107.245 88.9755 107.508C87.6649 108.396 84.2087 110.604 83.4142 111.696C82.3601 113.144 82.8074 113.61 83.5987 114.97C89.4009 124.952 98.356 134.51 104.361 144.539C106.936 147.645 111.102 148.824 114.874 147.241C116.094 146.728 117.014 145.537 118.334 145.19L91.2745 106.191L91.2714 106.195Z" fill="#DD477E"/>
<path d="M189.127 190.589C192.611 189.418 194.488 185.648 193.318 182.167C192.149 178.686 188.376 176.813 184.891 177.984C181.406 179.154 179.53 182.925 180.699 186.406C181.869 189.886 185.642 191.759 189.127 190.589Z" fill="#DD477E"/>
<path d="M241.015 131.173C237.706 121.321 227.03 116.02 217.171 119.332C207.312 122.644 202.004 133.315 205.313 143.166C208.623 153.017 219.301 158.318 229.157 155.006C239.016 151.697 244.327 141.024 241.015 131.173ZM235.003 144.961C232.019 145.965 228.788 144.361 227.787 141.377C226.783 138.397 228.391 135.166 231.375 134.162C234.359 133.162 237.59 134.766 238.594 137.746C239.595 140.73 237.987 143.96 235.003 144.961Z" fill="#DD477E"/>
<path d="M238.331 182.214C236.048 175.418 228.682 171.759 221.882 174.046C215.082 176.328 211.419 183.69 213.702 190.486C215.986 197.282 223.348 200.938 230.152 198.655C236.952 196.372 240.614 189.01 238.331 182.214ZM234.85 191.255C232.892 191.915 230.771 190.861 230.114 188.904C229.457 186.946 230.511 184.829 232.469 184.169C234.427 183.512 236.548 184.566 237.205 186.521C237.862 188.478 236.808 190.599 234.85 191.255Z" fill="#DD477E"/>
</svg>
