<svg width="279" height="284" viewBox="0 0 279 284" fill="none" xmlns="http://www.w3.org/2000/svg">
<path d="M139.5 5C213.699 5 274 66.2529 274 142C274 217.747 213.699 279 139.5 279C65.3011 279 5 217.747 5 142C5 66.2529 65.3011 5 139.5 5Z" stroke="#DD477E" stroke-width="10"/>
<path d="M193.021 67.4563C192.08 65.0123 190.581 63.4689 188.186 62.5L193.021 67.4563Z" fill="#DD477E"/>
<path d="M188.186 62.5C190.581 63.4689 192.08 65.0123 193.022 67.4563V73.6548C192.386 74.0989 192.474 74.6485 191.605 74.8224C185.969 75.9559 190.405 67.7855 187.12 67.1551L165.503 67.2824C164.628 67.6116 164.407 68.2699 164.307 69.155C163.94 72.335 164.013 79.8564 164.298 83.1202C164.449 84.8406 164.931 85.2537 166.436 85.8872C172.222 88.3218 179.747 89.1758 185.691 91.5515C191.199 92.8372 186.357 82.1513 189.906 81.4712C191.432 81.1793 192.119 81.4526 193.022 82.6389V91.626C191.111 96.4923 187.271 97.1693 182.748 95.6538V111.923C182.748 112.594 181.467 114.566 181.258 115.355C180.498 118.23 180.746 123.649 180.286 127.062C179.604 132.134 176.416 147.089 172.452 150.018C170.463 151.49 168.28 151.521 166.145 150.328C164.861 149.611 159.807 145.257 159.32 144.003C157.775 140.006 161.491 138.152 163.529 135.602C168.116 129.867 172.192 118.439 169.445 111.305L169.406 91.6695C165.155 90.4957 160.434 89.7007 159.807 84.3127C159.438 81.1389 159.353 70.7046 159.846 67.6892C160.258 65.1707 162.284 63.1584 164.61 62.5031H188.183L188.186 62.5ZM173.981 93.1757V111.302C173.981 112.849 177.545 114.013 178.148 111.237C177.918 109.122 178.735 94.5483 178.036 94.07C177.694 93.834 174.175 92.98 173.981 93.1757ZM176.401 117.656C176.062 117.715 174.987 117.56 174.893 117.662C174.775 117.786 174.617 120.556 174.505 121.14C173.321 127.385 170.993 133.634 167.023 138.568C166.511 139.202 163.789 141.692 163.731 142.028C163.656 142.469 168.104 146.298 168.767 146.431C169.149 146.509 169.394 146.515 169.751 146.332C170.708 145.844 173.176 138.413 173.594 136.938C175.335 130.801 176.313 124.035 176.401 117.659V117.656Z" fill="#DD477E"/>
<path d="M111.876 216.503C120 215.658 128.539 204.655 135.319 200.258C138.078 198.491 140.197 201.59 138.214 204C129.805 209.593 122.187 220.459 111.589 221.167C95.6732 222.229 78.6435 220.338 62.61 221.158C60.5843 221.009 59.7516 218.642 61.1202 217.139C62.4132 215.72 67.4821 217.015 69.408 216.344L138.623 159.338C141.92 156.083 143.077 151.68 142.241 147.093C137.666 151.611 133.339 156.85 128.179 160.713C127.186 161.455 126.235 162.282 125.133 162.856C117.805 166.663 107.764 164.732 106.28 155.456L105.387 155.623L43.2609 206.575C42.6068 207.339 42.6886 210.842 42.8157 212.009C43.5637 218.81 49.9286 215.316 53.0838 216.664C54.8492 217.419 54.6675 220.552 52.8779 221.086C52.0089 221.347 47.4153 221.263 46.295 221.145C41.9861 220.698 38.7067 217.009 38.2707 212.64C38.955 201.261 37.4046 188.858 38.2707 177.601C38.4917 174.728 39.6817 171.871 41.3108 169.564C57.2958 155.962 73.3626 142.183 89.823 129.131C95.9033 124.308 109.015 113.619 116.721 113.92C119.737 114.038 122.047 115.824 122.311 119.035C122.608 122.644 121.045 125.42 119.286 128.351C118.723 129.289 116.146 132.572 116.006 133.065C115.646 134.351 117.308 138.279 116.863 139.966C121.787 136.292 126.474 132.246 131.692 128.991C136.107 126.233 148.11 119.054 151.365 126.435C153.176 130.541 150.789 134.938 148.718 138.391C148.161 139.32 145.705 142.388 145.615 142.981C145.545 143.444 146.968 147.456 147.077 148.804C147.219 150.552 146.926 152.195 146.78 153.909C151.307 151.732 160.373 145.956 164.307 151.589C167.413 156.04 163.683 162.142 161.103 165.961C160.237 167.244 155.762 172.39 155.607 173.048C155.35 174.132 156.579 177.091 156.718 178.582C157.251 184.243 154.886 189.777 150.868 193.581C150.078 194.33 147.101 196.83 146.287 197.249C144.185 198.33 142.263 196.612 142.917 194.414C143.268 193.237 147.973 190.113 149.094 188.818C151.577 185.942 152.727 181.206 151.919 177.464C151.401 176.893 146.444 182.386 145.881 182.889C139.952 188.187 131.725 193.656 124.019 187.945C121.493 186.076 120.821 183.715 119.737 180.877L76.6722 216.506H111.879L111.876 216.503ZM117.424 118.631C115.477 117.386 107.383 122.19 105.405 123.417C97.5051 128.311 90.6981 134.801 83.3248 140.438C82.8403 141.031 83.2007 143.251 83.3945 144.074C84.5936 149.145 90.2832 149.406 94.2681 147.63C99.6338 145.239 115.985 127.594 117.481 121.855C117.781 120.7 117.999 119.777 117.427 118.631H117.424ZM144.897 127.963C141.512 128.392 136.854 131.305 133.932 133.143C125.496 138.447 117.938 145.316 110.28 151.617C110.377 157.962 113.578 160.806 119.701 159.763C122.91 159.213 125.045 157.353 127.443 155.31C132.47 151.027 144.697 138.391 146.838 132.432C147.728 129.954 148.216 127.541 144.897 127.963ZM42.8218 177.924V200.699C43.3517 200.836 43.4274 200.469 43.7302 200.236C65.9106 183.054 86.7889 163.965 108.903 146.674C111.098 144.304 112.63 141.161 111.882 137.798C104.884 144.922 96.0214 156.946 84.7541 152.285C82.3165 151.276 80.6329 149.552 79.5458 147.09C79.2672 146.459 79.1219 144.431 78.3407 144.618L45.111 172.213C44.033 173.949 43.0398 175.831 42.8248 177.924H42.8218ZM158.493 153.99C155.041 154.428 149.939 157.574 146.926 159.48C138.889 164.567 131.907 171.166 124.394 176.973C123.976 177.539 124.358 179.775 124.555 180.573C126.114 186.923 133.499 186.299 137.935 183.417C143.631 179.716 157.494 164.989 160.137 158.772C161.127 156.44 162.027 153.543 158.493 153.99Z" fill="#DD477E"/>
<path d="M169.612 175.191C169.527 176.051 169.536 177.967 169.642 178.821C171.91 197.072 199.011 196.038 199.595 177.392C200.219 157.542 171.513 156.201 169.612 175.191ZM188.228 175.122C185.857 175.144 183.916 173.188 183.895 170.753C183.877 168.315 185.782 166.325 188.156 166.306C190.53 166.284 192.467 168.241 192.489 170.675C192.51 173.11 190.602 175.101 188.228 175.122Z" fill="#DD477E"/>
<path d="M229.143 106.669C217.173 106.771 207.556 116.814 207.659 129.096C207.759 141.378 217.546 151.248 229.515 151.142C241.482 151.036 251.102 140.996 250.999 128.714C250.896 116.432 241.11 106.563 229.143 106.669ZM235.587 125.258C231.965 125.292 229.001 122.305 228.97 118.588C228.94 114.867 231.85 111.83 235.475 111.796C239.096 111.765 242.058 114.752 242.091 118.47C242.121 122.187 239.208 125.227 235.587 125.258Z" fill="#DD477E"/>
</svg>
