<svg width="213" height="233" viewBox="0 0 213 233" fill="none" xmlns="http://www.w3.org/2000/svg">
<path d="M112.32 199.24C100.375 194.784 89.1842 187.925 79.7771 179.813C75.1772 175.847 70.327 168.696 66.2826 165.793C62.2381 162.889 56.324 161.765 51.5755 158.336C13.783 131.038 20.4559 64.3245 21.9345 24.5953C22.1457 18.8857 20.8588 6.02568 22.7911 1.45082C23.4678 -0.148579 27.9503 0.0819672 28.5839 0.996939C29.069 1.69938 28.7991 15.3303 28.7365 17.6357C28.1693 39.4762 26.8668 61.8137 27.8212 83.7587C29.0924 112.933 34.811 146.589 67.3504 159.373C70.0493 160.433 90.3107 167.389 91.2025 166.571C91.1751 156.971 75.5019 157.043 68.6608 152.327C66.2396 147.097 45.8961 126.856 45.5714 123.347C45.3015 120.44 49.1778 119.046 51.4464 121.118L73.4718 147.558C74.6179 148.318 75.3141 147.565 76.026 146.758C82.6559 139.23 66.6424 127.947 63.8223 121.395C59.4532 111.244 62.5862 108.758 53.1909 98.5135C51.3369 96.4926 49.1934 97.069 48.9196 93.0453C54.3761 62.4297 59.0659 31.5584 65.8054 1.22028C68.0505 -1.2977 71.6139 0.395361 71.5122 3.44286L63.7597 46.0071C70.0923 43.8781 68.1992 37.0843 69.4743 31.825C78.5998 -5.84014 141.504 -2.62333 158.949 26.7818C162.989 33.5901 161.351 41.8573 168.904 45.9999L161.574 3.44286C161.714 -0.559236 166.252 -1.21484 167.844 2.25052L184.174 93.0741C182.113 98.4414 176.488 101.269 173.523 106.644C170.64 111.867 171.243 116.802 169.267 121.391C166.447 127.944 150.434 139.226 157.064 146.755C157.776 147.562 158.476 148.315 159.618 147.555L181.643 121.114C183.912 119.039 187.788 120.437 187.518 123.344C187.194 126.852 166.846 147.093 164.429 152.324C157.588 157.039 141.918 156.967 141.887 166.567C166.162 160.944 180.661 155.537 193.554 135.199C195.599 131.971 196.722 125.379 201.408 126.081C206.954 126.91 198.897 138.938 197.14 141.618C191.923 149.572 183.705 157.796 174.841 162.309C172.455 163.527 167.918 164.42 166.631 165.256C165.027 166.293 158.683 174.87 156.281 177.115C149.018 183.898 139.642 189.899 130.916 194.985L119.076 199.25H112.317L112.32 199.24ZM155.393 35.0995C157.611 32.8444 146.256 22.0305 143.976 20.341C128.318 8.73458 103.093 5.11792 86.5752 17.2323C80.1487 21.9476 75.9048 29.498 75.142 37.0447C75.8109 38.2586 76.6479 37.0519 77.2972 36.6952C85.922 32.0195 82.6794 32.7508 86.5087 25.73C95.5168 9.21368 117.57 13.3491 131.467 21.7495L155.39 35.103L155.393 35.0995ZM173.144 96.5574C176.316 94.6627 177.45 93.6324 177.278 90.0698C177.016 84.5728 173.269 63.8922 171.399 58.8671C167.519 48.4422 133.704 28.655 122.439 23.8316C95.3525 12.2288 78.8657 34.6996 98.7868 51.0574C109.234 59.638 124.555 66.2373 136.423 73.1788C138.343 74.4973 138.027 77.343 135.957 78.2976C131.702 80.2573 118.935 68.8165 115.68 69.627C113.623 70.1385 104.232 76.4389 101.055 78.0239C91.4997 82.786 69.7677 90.0986 65.4025 98.8665C63.2473 103.2 66.3334 105.487 67.7611 109.972C68.6451 112.742 68.7781 116.071 69.6269 118.365C73.3506 128.441 91.7618 137.176 81.0561 150.998C90.9052 153.815 99.7294 157.922 96.9249 169.125C95.067 176.538 84.2635 170.292 79.3742 170.843C84.51 175.533 90.076 180.461 95.9979 184.315C100.152 187.021 109.582 192.572 114.413 193.04C124.192 193.991 141.574 181.632 148.646 175.522C150.402 174.006 153.285 171.956 153.7 169.68C152.824 168.945 136.728 178.948 135.504 166.607C134.553 157.046 143.776 153.401 152.018 150.995C141.574 137.259 159.027 128.924 163.185 118.899C164.182 116.492 164.218 113.319 165.117 110.563C166.733 105.603 169.878 103.232 167.359 98.3622C163.392 90.6858 145.65 85.7003 144.582 82.7788C141.488 74.3208 156.935 82.6095 159.876 84.2594C164.863 87.0583 171.372 91.2153 173.144 96.5538V96.5574ZM84.4396 39.7752C83.8646 39.1988 74.4536 45.5892 73.4523 46.3745C70.1549 48.9501 63.6658 54.919 62.0582 58.442C60.0595 62.8188 55.7295 85.8335 55.6825 90.7758C55.6669 92.5229 56.8677 95.3543 58.7491 95.7505C60.3176 96.0784 62.4689 91.6548 63.6228 90.6137C75.408 80.0087 96.9445 75.9562 109.762 65.8338C100.109 58.5465 85.6247 52.8441 84.4356 39.7788L84.4396 39.7752Z" fill="#DD477E"/>
<path d="M204.51 0.993453C204.838 0.514353 208.073 -0.105238 208.926 0.150522C212.36 1.17716 210.967 20.0241 211.112 23.8569C212.027 48.5035 215.059 92.2817 208.229 115.26C206.841 119.925 201.869 119.828 201.779 114.839C201.607 105.462 205.648 92.9193 205.272 82.9771L204.514 0.993453H204.51Z" fill="#DD477E"/>
<path d="M79.6402 118.891C78.1225 117.136 77.6766 114.065 80.6689 113.636C84.6742 113.06 87.1267 118.098 94.8127 116.606C97.2691 116.13 103.833 110.54 104.76 115.64C105.456 119.464 98.4739 122.502 94.9301 122.938C90.604 123.471 82.4369 122.127 79.6402 118.891Z" fill="#DD477E"/>
<path d="M129.754 113.759C133.407 112.627 137.749 118.703 145.314 116.44C147.977 115.644 150.039 111.531 154.193 114.397C157.185 118.166 147.254 122.534 143.925 122.942C139.642 123.468 131.815 122.163 129.159 118.79C128.088 117.427 127.618 114.422 129.754 113.762V113.759Z" fill="#DD477E"/>
<path d="M87.3732 199.924C64.6202 203.062 69.224 234.214 91.269 232.622C92.2664 232.55 94.449 232.168 95.3956 231.894C115.716 225.951 108.745 196.981 87.3732 199.924ZM83.1605 218.098C80.3873 218.588 77.7119 216.916 77.1838 214.366C76.6519 211.815 78.4668 209.351 81.2361 208.865C84.0093 208.375 86.6848 210.047 87.2128 212.597C87.7448 215.144 85.9298 217.608 83.1605 218.098Z" fill="#DD477E"/>
<path d="M20.9213 153.935C34.897 151.467 48.3915 159.896 51.0709 172.756C53.7463 185.62 44.5896 198.044 30.6139 200.512C16.6383 202.979 3.14375 194.55 0.4644 181.69C-2.21104 168.826 6.94568 156.402 20.9213 153.935ZM11.1505 165.491C6.92222 166.236 4.14899 169.997 4.95866 173.891C5.76833 177.785 9.85581 180.335 14.0841 179.59C18.3124 178.844 21.0856 175.083 20.2759 171.189C19.4663 167.295 15.3788 164.745 11.1505 165.491Z" fill="#DD477E"/>
</svg>
