<svg width="279" height="284" viewBox="0 0 279 284" fill="none" xmlns="http://www.w3.org/2000/svg">
<path d="M135.45 224.243C124.873 220.436 114.965 214.575 106.635 207.644C102.563 204.255 98.2682 198.145 94.6872 195.664C91.1062 193.183 85.8698 192.223 81.6654 189.293C48.2035 165.968 54.1118 108.963 55.4209 75.0158C55.6079 70.1372 54.4685 59.1487 56.1793 55.2397C56.7785 53.873 60.7474 54.07 61.3084 54.8519C61.7379 55.4521 61.4989 67.0992 61.4435 69.0691C60.9413 87.7311 59.788 106.818 60.6331 125.569C61.7586 150.498 66.8219 179.255 95.6327 190.179C98.0223 191.084 115.962 197.028 116.752 196.329C116.727 188.126 102.85 188.188 96.7929 184.159C94.6491 179.689 76.6368 162.394 76.3493 159.396C76.1103 156.912 79.5424 155.721 81.5511 157.491L101.053 180.083C102.067 180.733 102.684 180.09 103.314 179.4C109.184 172.967 95.0058 163.327 92.5088 157.728C88.6404 149.054 91.4144 146.93 83.0957 138.176C81.4541 136.45 79.5563 136.942 79.3139 133.504C84.1451 107.344 88.2975 80.9656 94.2647 55.0427C96.2526 52.8912 99.4076 54.3378 99.3176 56.9418L92.4534 93.3115C98.0604 91.4924 96.3842 85.6873 97.5132 81.1934C105.593 49.0098 161.289 51.7585 176.735 76.8842C180.313 82.7016 178.862 89.7656 185.549 93.3053L179.059 56.9418C179.184 53.5222 183.201 52.962 184.61 55.923L199.07 133.529C197.244 138.115 192.264 140.531 189.639 145.123C187.087 149.587 187.62 153.803 185.871 157.725C183.374 163.324 169.196 172.964 175.066 179.397C175.696 180.086 176.316 180.73 177.327 180.08L196.829 157.488C198.838 155.715 202.27 156.909 202.031 159.393C201.743 162.391 183.727 179.686 181.587 184.156C175.53 188.185 161.656 188.123 161.628 196.326C183.121 191.521 195.96 186.901 207.374 169.523C209.186 166.765 210.18 161.132 214.329 161.732C219.24 162.44 212.105 172.718 210.55 175.008C205.93 181.804 198.654 188.831 190.806 192.688C188.694 193.728 184.676 194.492 183.537 195.206C182.117 196.092 176.5 203.421 174.373 205.338C167.942 211.134 159.64 216.262 151.914 220.608L141.431 224.253H135.446L135.45 224.243ZM173.587 83.9913C175.551 82.0645 165.497 72.8243 163.478 71.3807C149.614 61.4634 127.28 58.3731 112.655 68.7244C106.964 72.7535 103.207 79.205 102.531 85.6534C103.124 86.6907 103.865 85.6596 104.44 85.3548C112.076 81.3596 109.205 81.9844 112.596 75.9854C120.572 61.8728 140.097 65.4063 152.402 72.5842L173.584 83.9944L173.587 83.9913ZM189.303 136.505C192.112 134.886 193.116 134.006 192.964 130.962C192.732 126.265 189.414 108.594 187.759 104.3C184.323 95.3922 154.383 78.4847 144.409 74.3633C120.426 64.4491 105.828 83.6496 123.467 97.6268C132.717 104.959 146.283 110.598 156.79 116.529C158.491 117.655 158.21 120.087 156.378 120.903C152.61 122.577 141.306 112.801 138.425 113.494C136.603 113.931 128.288 119.314 125.476 120.669C117.015 124.738 97.773 130.986 93.908 138.478C91.9997 142.181 94.7322 144.135 95.9963 147.968C96.779 150.335 96.8968 153.179 97.6483 155.139C100.945 163.748 117.247 171.213 107.768 183.023C116.488 185.43 124.301 188.939 121.818 198.511C120.173 204.846 110.608 199.509 106.279 199.98C110.826 203.987 115.754 208.198 120.998 211.491C124.675 213.803 133.025 218.546 137.303 218.946C145.961 219.759 161.351 209.198 167.613 203.978C169.168 202.682 171.72 200.931 172.087 198.985C171.312 198.358 157.06 206.905 155.976 196.36C155.135 188.191 163.301 185.076 170.598 183.02C161.351 171.283 176.804 164.161 180.486 155.595C181.369 153.539 181.4 150.827 182.197 148.472C183.627 144.234 186.411 142.209 184.181 138.047C180.669 131.488 164.96 127.228 164.015 124.732C161.275 117.505 174.951 124.587 177.556 125.997C181.972 128.388 187.734 131.94 189.303 136.502V136.505ZM110.764 87.9865C110.255 87.4941 101.922 92.9544 101.035 93.6254C98.1158 95.8262 92.3703 100.926 90.9469 103.937C89.1772 107.677 85.3434 127.342 85.3018 131.565C85.288 133.058 86.3512 135.477 88.017 135.816C89.4058 136.096 91.3106 132.316 92.3322 131.426C102.767 122.365 121.836 118.902 133.185 110.253C124.637 104.026 111.813 99.1535 110.76 87.9896L110.764 87.9865Z" fill="#DD477E"/>
<path d="M217.075 54.8489C217.366 54.4395 220.23 53.9101 220.985 54.1286C224.026 55.0059 222.793 71.11 222.921 74.385C223.732 95.4447 226.416 132.852 220.369 152.486C219.139 156.472 214.738 156.389 214.658 152.126C214.506 144.114 218.083 133.396 217.751 124.901L217.079 54.8489H217.075Z" fill="#DD477E"/>
<path d="M106.514 155.586C105.17 154.087 104.776 151.464 107.425 151.098C110.971 150.606 113.143 154.909 119.948 153.634C122.123 153.228 127.934 148.454 128.755 152.809C129.372 156.075 123.19 158.67 120.052 159.042C116.222 159.498 108.99 158.35 106.514 155.586Z" fill="#DD477E"/>
<path d="M150.886 151.203C154.12 150.236 157.965 155.426 164.663 153.493C167.021 152.812 168.846 149.3 172.524 151.747C175.173 154.967 166.38 158.698 163.433 159.045C159.641 159.495 152.711 158.381 150.359 155.5C149.41 154.336 148.995 151.769 150.886 151.206V151.203Z" fill="#DD477E"/>
<path d="M113.361 224.828C93.2154 227.509 97.2916 254.128 116.81 252.767C117.694 252.706 119.626 252.379 120.464 252.146C138.456 247.067 132.284 222.314 113.361 224.828ZM109.631 240.357C107.176 240.775 104.807 239.347 104.339 237.168C103.868 234.989 105.475 232.883 107.927 232.468C110.383 232.049 112.752 233.477 113.219 235.657C113.69 237.833 112.083 239.938 109.631 240.357Z" fill="#DD477E"/>
<path d="M54.524 185.532C66.8982 183.423 78.8464 190.626 81.2187 201.614C83.5876 212.606 75.4801 223.222 63.1059 225.33C50.7317 227.439 38.7835 220.236 36.4112 209.248C34.0423 198.256 42.1498 187.64 54.524 185.532ZM45.8728 195.406C42.129 196.043 39.6736 199.256 40.3905 202.584C41.1073 205.911 44.7265 208.09 48.4702 207.453C52.214 206.816 54.6694 203.603 53.9526 200.275C53.2357 196.948 49.6166 194.769 45.8728 195.406Z" fill="#DD477E"/>
<path d="M139.5 5C213.699 5 274 66.2529 274 142C274 217.747 213.699 279 139.5 279C65.3011 279 5 217.747 5 142C5 66.2529 65.3011 5 139.5 5Z" stroke="#DD477E" stroke-width="10"/>
</svg>
