<svg width="1732" height="981" viewBox="0 0 1732 981" fill="none" xmlns="http://www.w3.org/2000/svg">
<path d="M1432.7 258.948C1438.34 273.699 1430.16 290.358 1414.03 292.565C1395.72 295.072 1381.62 276.152 1389.48 259.238C1396.77 243.551 1415.55 241.054 1427.95 252.072L1432.7 258.948Z" fill="#FFB6A9"/>
<path d="M1131.76 493.41C1142.46 485.926 1145.1 471.137 1137.68 460.377C1130.25 449.617 1115.56 446.962 1104.87 454.446C1094.17 461.93 1091.52 476.719 1098.95 487.479C1106.38 498.239 1121.07 500.894 1131.76 493.41Z" fill="#FFB6A9"/>
<path d="M1216.71 148.831C1232.03 138.112 1235.82 116.926 1225.18 101.512C1214.54 86.0969 1193.5 82.2904 1178.18 93.0096C1162.87 103.729 1159.07 124.915 1169.71 140.329C1180.35 155.744 1201.4 159.55 1216.71 148.831Z" fill="#FFB6A9"/>
<path d="M967.394 208.617C969.325 206.9 974.052 203.603 976.334 202.359C1026.7 174.891 1073.16 250.636 1022.89 282.846C975.666 313.103 926.097 245.504 967.394 208.617ZM1027.21 253.216C1033.21 249.02 1034.7 240.717 1030.53 234.686C1026.36 228.646 1018.12 227.156 1012.12 231.362C1006.12 235.567 1004.63 243.86 1008.8 249.892C1012.97 255.932 1021.21 257.422 1027.21 253.216Z" fill="#FFB6A9"/>
<path d="M1027.23 253.262C1033.22 249.065 1034.71 240.767 1030.54 234.728C1026.37 228.689 1018.13 227.196 1012.13 231.393C1006.13 235.59 1004.65 243.888 1008.82 249.927C1012.99 255.966 1021.23 257.46 1027.23 253.262Z" fill="white"/>
<path d="M1232.69 331.505C1202.43 352.688 1160.86 345.167 1139.84 314.71C1118.82 284.254 1126.31 242.407 1156.56 221.225C1186.82 200.042 1228.39 207.563 1249.41 238.02C1270.43 268.476 1262.94 310.323 1232.69 331.505ZM1242.63 291.257C1251.79 284.844 1254.06 272.173 1247.69 262.962C1241.33 253.743 1228.75 251.472 1219.58 257.876C1210.42 264.289 1208.15 276.96 1214.52 286.17C1220.88 295.39 1233.46 297.661 1242.63 291.257Z" fill="#FFB6A9"/>
<path d="M1242.64 291.316C1251.8 284.905 1254.07 272.235 1247.71 263.016C1241.34 253.797 1228.76 251.52 1219.6 257.93C1210.44 264.341 1208.17 277.011 1214.53 286.23C1220.9 295.449 1233.48 297.726 1242.64 291.316Z" fill="white"/>
<path d="M1279.31 480.063C1258.43 494.669 1229.76 489.483 1215.26 468.482C1200.76 447.472 1205.92 418.605 1226.8 403.99C1247.67 389.384 1276.35 394.571 1290.85 415.572C1305.34 436.581 1300.18 465.448 1279.31 480.063ZM1287.97 450.025C1293.98 445.819 1295.46 437.508 1291.29 431.458C1287.11 425.409 1278.86 423.919 1272.84 428.125C1266.83 432.33 1265.34 440.642 1269.52 446.691C1273.7 452.741 1281.95 454.23 1287.97 450.025Z" fill="#FFB6A9"/>
<path d="M1287.98 450.074C1293.99 445.869 1295.48 437.557 1291.31 431.51C1287.13 425.462 1278.88 423.97 1272.87 428.175C1266.86 432.381 1265.37 440.693 1269.54 446.74C1273.72 452.787 1281.97 454.28 1287.98 450.074Z" fill="white"/>
<path d="M373.823 387.513C391.847 397.178 403.773 413.864 403.773 436.99C403.773 474.459 378.478 503.444 333.41 503.444C308.991 503.444 289.803 494.37 274.973 485.005C267.414 496.132 256.661 503.444 240.955 503.444C217.113 503.444 203.447 486.467 203.447 466.847C203.447 448.408 216.238 431.422 238.33 427.907C241.533 411.221 241.821 394.535 249.092 380.192C239.205 374.043 231.646 363.506 231.646 349.163C231.646 315.791 273.512 294.127 319.743 294.127C369.457 294.127 392.722 318.716 392.722 346.82C392.722 364.096 383.999 377.558 373.823 387.513ZM297.065 401.856C295.026 414.155 293.285 427.907 290.381 441.668C298.229 445.765 305.5 448.989 312.473 448.989C322.359 448.989 328.755 442.549 328.755 431.131C328.755 424.11 326.428 417.37 322.071 412.692C310.154 412.402 300.556 408.305 297.065 401.856ZM291.247 353.551C300.845 354.132 308.693 358.819 312.184 367.312C307.827 369.065 304.625 374.043 302.008 380.782C306.366 377.558 313.925 375.223 325.851 374.924C329.342 371.118 331.669 366.431 331.669 360.29C331.669 352.097 325.273 345.657 314.511 345.657C306.375 345.657 298.229 348.291 291.256 353.56L291.247 353.551Z" fill="#FFEEE6"/>
<path d="M480.522 485.877C470.058 496.123 455.805 503.444 439.233 503.444C415.978 503.444 398.243 487.339 398.243 458.654C398.243 439.334 410.457 416.789 410.457 401.565C410.457 392.491 407.552 385.76 397.079 385.76C398.243 367.612 413.073 352.679 435.165 352.679C457.257 352.679 468.308 368.193 468.308 386.342C468.308 408.587 452.314 433.475 452.314 449.58C452.314 456.901 455.507 460.997 460.748 460.997C473.828 460.997 484.59 431.722 484.59 410.058C484.59 398.64 479.647 391.029 470.346 388.394C472.674 370.246 488.659 352.679 509.307 352.679C528.495 352.679 543.613 364.096 543.613 386.051C543.613 405.662 530.822 429.669 530.822 448.117C530.822 457.782 534.602 465.684 549.721 465.684C547.105 486.767 532.274 502.281 507.855 502.281C494.775 502.281 485.763 495.251 480.522 485.886V485.877Z" fill="#FFEEE6"/>
<path d="M543.316 447.527C543.316 417.37 562.792 369.365 562.792 344.186C562.792 335.111 559.887 327.5 549.712 326.037C550.875 308.47 566.571 294.127 587.797 294.127C605.244 294.127 620.065 306.127 620.065 326.037C620.065 347.41 607.851 365.559 601.166 381.073C611.053 365.849 626.749 352.679 645.937 352.679C670.943 352.679 686.061 372.29 686.061 402.156C686.061 463.341 645.071 503.444 598.55 503.444C563.08 503.444 543.307 480.608 543.307 447.527H543.316ZM630.836 411.811C630.836 396.587 627.056 391.9 622.113 391.9C609.61 391.9 594.491 422.057 594.491 447.817C594.491 464.504 601.762 465.675 604.378 465.675C620.372 465.675 630.836 427.325 630.836 411.811Z" fill="#FFEEE6"/>
<path d="M677.636 447.527C677.636 417.37 697.112 369.365 697.112 344.186C697.112 335.111 694.207 327.5 684.032 326.037C685.195 308.47 700.892 294.127 722.118 294.127C739.564 294.127 754.385 306.127 754.385 326.037C754.385 347.41 742.171 365.559 735.487 381.073C745.373 365.849 761.07 352.679 780.257 352.679C805.263 352.679 820.382 372.29 820.382 402.156C820.382 463.341 779.391 503.444 732.87 503.444C697.401 503.444 677.627 480.608 677.627 447.527H677.636ZM765.156 411.811C765.156 396.587 761.376 391.9 756.433 391.9C743.93 391.9 728.811 422.057 728.811 447.817C728.811 464.504 736.082 465.675 738.698 465.675C754.692 465.675 765.156 427.325 765.156 411.811Z" fill="#FFEEE6"/>
<path d="M887.262 465.675C885.223 484.705 865.747 502.272 842.194 502.272C818.641 502.272 809.34 483.242 809.34 465.675C809.34 435.519 834.048 376.386 834.048 343.014C834.048 332.477 828.23 326.619 820.968 326.037C821.843 309.351 837.539 294.127 858.477 294.127C876.5 294.127 891.908 305.545 891.908 329.843C891.908 360 868.354 424.11 868.354 448.117C868.354 463.632 877.953 465.684 887.253 465.684L887.262 465.675Z" fill="#FFEEE6"/>
<path d="M993.094 431.431C1005.01 434.065 1011.41 442.849 1011.41 453.095C1011.41 475.93 980.88 503.453 941.342 503.453C906.161 503.453 878.539 481.789 878.539 441.686C878.539 394.844 916.914 352.688 966.636 352.688C991.056 352.688 1014.9 364.687 1014.9 391.919C1014.9 403.046 1009.95 420.023 993.094 431.44V431.431ZM944.824 443.43C940.756 443.43 936.687 443.14 932.321 442.849C933.196 453.976 937.553 460.997 948.892 460.997C961.395 460.997 971.571 452.214 976.514 439.043C967.791 441.677 957.327 443.43 944.824 443.43ZM933.494 423.819C950.651 422.938 963.145 416.208 963.145 402.737C963.145 396.006 959.952 391.91 954.711 391.91C945.113 391.91 936.687 406.543 933.485 423.819H933.494Z" fill="#FFEEE6"/>
<path d="M644.187 710.553C637.024 711.934 630.268 711.652 623.89 709.699C617.512 707.746 612.199 704.485 607.932 699.907C603.665 695.329 600.914 689.816 599.687 683.376C598.632 677.853 598.965 672.548 600.679 667.443C602.393 662.338 605.036 657.779 608.609 653.746C612.181 649.722 616.15 646.724 620.516 644.771C619.821 644.426 619.334 644.163 619.064 643.981C618.793 643.799 618.396 643.59 617.882 643.372L605.208 636.515C602.502 643.872 598.523 650.53 593.264 656.471C588.005 662.411 581.799 667.389 574.672 671.386C567.537 675.391 559.635 678.225 550.956 679.906C538.472 682.322 527.223 682.104 517.201 679.27C507.187 676.436 498.879 671.358 492.276 664.055C485.673 656.743 481.316 647.569 479.214 636.533C477.816 629.175 477.87 622.008 479.385 615.042C480.901 608.075 483.607 601.589 487.522 595.585C491.428 589.581 496.281 584.358 502.064 579.898C499.366 578.19 496.931 576.165 494.748 573.803C492.565 571.451 490.715 568.78 489.2 565.81C487.684 562.849 486.629 559.751 486.015 556.527C484.762 549.932 485.33 543.628 487.738 537.597C490.147 531.566 493.891 526.397 498.987 522.074C504.084 517.75 510.137 514.916 517.137 513.563C524.751 512.091 531.652 512.273 537.84 514.089C544.028 515.915 549.233 519.203 553.455 523.954C557.677 528.705 560.473 534.681 561.845 541.884C563.071 548.324 562.539 554.474 560.266 560.314C557.984 566.164 554.24 571.178 549.044 575.356L586.517 595.54L586.751 594.304C588.086 587.21 589.647 580.906 591.442 575.393C593.237 569.879 595.492 565.156 598.217 561.205C600.941 557.263 604.54 553.983 609.015 551.367C613.489 548.751 619.073 546.798 625.775 545.509L641.535 542.466L646.225 567.082L632.063 569.816C628.103 570.579 624.981 571.823 622.708 573.531C620.426 575.247 618.658 577.573 617.404 580.516C616.15 583.468 615.104 587.083 614.265 591.379C613.426 595.676 612.479 600.872 611.432 606.948L611.098 608.919L612.641 609.573C626.028 616.05 637.096 622.335 645.838 628.439C654.579 634.543 661.317 640.711 666.062 646.951C670.807 653.192 673.847 659.831 675.191 666.889C676.535 673.938 676.13 680.541 673.992 686.673C671.845 692.813 668.209 697.963 663.085 702.133C657.962 706.302 651.665 709.109 644.205 710.553H644.187ZM547.213 651.547C552.237 650.576 556.856 648.931 561.069 646.606C565.282 644.281 569.034 641.174 572.318 637.278C575.601 633.39 578.281 628.612 580.364 622.962L524.625 592.706C521.467 595.222 518.599 598.165 516.001 601.526C513.403 604.886 511.508 608.638 510.327 612.762C509.136 616.885 509.046 621.554 510.038 626.768C511.12 632.445 513.439 637.359 516.993 641.52C520.547 645.689 524.949 648.686 530.2 650.539C535.441 652.392 541.115 652.719 547.204 651.547H547.213ZM526.826 563.194C528.846 561.368 530.416 559.479 531.544 557.517C532.671 555.555 533.411 553.656 533.781 551.84C534.142 550.023 534.196 548.424 533.934 547.044C533.384 544.137 531.995 541.812 529.767 540.095C527.547 538.378 524.913 537.815 521.864 538.405C519.88 538.787 518.229 539.623 516.894 540.912C515.559 542.202 514.621 543.701 514.079 545.391C513.529 547.089 513.448 548.933 513.827 550.922C514.206 552.921 514.999 554.592 516.208 555.945C517.417 557.299 518.96 558.552 520.836 559.706C522.712 560.859 524.706 562.022 526.826 563.203V563.194ZM639.812 686.364C642.554 685.837 644.674 684.347 646.189 681.913C647.696 679.479 648.102 676.418 647.398 672.739C646.992 670.586 646.234 668.506 645.143 666.499C644.051 664.482 642.473 662.638 640.416 660.976C637.484 662.175 634.967 663.656 632.857 665.418C630.746 667.18 629.23 669.178 628.319 671.422C627.399 673.665 627.192 676.091 627.688 678.698C628.238 681.613 629.717 683.748 632.108 685.12C634.498 686.482 637.069 686.909 639.803 686.373L639.812 686.364Z" fill="#FFB6A9"/>
<path d="M832.28 629.629C839.082 639.221 843.159 651.202 843.159 665.245C843.159 718.328 806.426 749.493 751.336 749.493C740.457 749.493 730.588 747.785 721.748 744.016C721.071 745.733 720.729 747.785 720.729 749.493C720.729 755.316 724.472 759.421 735.694 759.421C749.974 759.421 768.007 752.572 786.03 752.572C808.14 752.572 829.222 764.898 829.222 794.011C829.222 823.123 809.494 841.616 779.905 844.005C779.905 834.077 772.084 829.626 762.558 829.626C750.993 829.626 735.694 835.104 718.347 835.104C681.28 835.104 666.991 810.106 666.991 786.135C666.991 759.421 684.681 740.591 701 730.654C691.14 720.381 685.358 706.683 685.358 689.897C685.358 644.008 721.748 604.287 777.866 604.287C789.774 604.287 800.996 606.685 810.513 611.481C807.112 599.836 797.929 593.678 784.668 593.678C780.248 593.678 775.485 594.359 770.388 595.73C768.35 590.253 767.33 584.776 767.33 579.635C767.33 554.983 788.421 535.799 812.227 535.799C838.072 535.799 856.438 552.921 856.438 578.608C856.438 598.81 847.598 616.967 832.289 629.629H832.28ZM782.63 666.962C782.63 650.185 775.828 646.761 771.065 646.761C757.461 646.761 748.278 672.448 748.278 691.623C748.278 703.949 752.356 712.17 760.862 712.17C776.171 712.17 782.63 683.403 782.63 666.962Z" fill="#FFBF8A"/>
<path d="M921.045 736.477C918.664 758.74 895.877 779.286 868.327 779.286C840.778 779.286 829.899 757.023 829.899 736.477C829.899 701.206 858.81 632.027 858.81 592.987C858.81 580.661 852.009 573.812 843.502 573.122C844.521 553.602 862.888 535.799 887.37 535.799C908.461 535.799 926.485 549.151 926.485 577.582C926.485 612.853 898.935 687.854 898.935 715.93C898.935 734.079 910.157 736.477 921.045 736.477Z" fill="#FFBF8A"/>
<path d="M911.519 709.426C911.519 655.662 952.672 604.296 1009.81 604.296C1048.24 604.296 1076.47 626.559 1076.47 673.811C1076.47 729.292 1037.35 780.658 980.898 780.658C940.088 780.658 911.519 753.944 911.519 709.426ZM1016.61 673.811C1016.61 657.715 1012.19 650.185 1003.68 650.185C986.681 650.185 973.077 682.376 973.077 707.719C973.077 724.16 978.86 731.008 986.681 731.008C1003.34 731.008 1016.61 701.56 1016.61 673.82V673.811Z" fill="#FFBF8A"/>
<path d="M1162.85 726.203C1159.1 711.479 1157.41 695.384 1157.41 678.262C1157.41 633.744 1173.39 604.296 1203.66 604.296C1224.41 604.296 1236.99 622.444 1236.99 641.965C1236.99 662.511 1229.85 686.827 1218.97 708.745C1218.97 723.124 1222.37 732.716 1229.85 732.716C1246.17 732.716 1255.36 704.976 1255.36 683.058C1255.36 663.883 1249.23 651.893 1239.03 647.097C1242.77 625.86 1260.12 604.287 1289.7 604.287C1310.45 604.287 1326.43 620.037 1326.43 648.459C1326.43 707.701 1280.52 779.277 1215.22 779.277C1198.22 779.277 1185.64 771.402 1176.45 758.04C1161.49 771.393 1143.46 779.277 1121.7 779.277C1086.32 779.277 1073.74 754.616 1073.74 728.247C1073.74 707.701 1084.96 679.615 1084.96 664.891C1084.96 650.167 1078.16 642.973 1066.25 642.973C1069.65 618.657 1090.75 604.278 1113.53 604.278C1137.68 604.278 1155.03 621.055 1155.03 642.973C1155.03 664.891 1138.37 699.135 1138.37 717.629C1138.37 725.849 1141.42 732.698 1149.93 732.698C1153.67 732.698 1158.43 730.3 1162.86 726.194L1162.85 726.203Z" fill="#FFBF8A"/>
</svg>
